%TF.GenerationSoftware,KiCad,Pcbnew,7.0.2-0*%
%TF.CreationDate,2024-12-21T14:04:36-08:00*%
%TF.ProjectId,CoPicoVision,436f5069-636f-4566-9973-696f6e2e6b69,2.0*%
%TF.SameCoordinates,Original*%
%TF.FileFunction,Paste,Top*%
%TF.FilePolarity,Positive*%
%FSLAX46Y46*%
G04 Gerber Fmt 4.6, Leading zero omitted, Abs format (unit mm)*
G04 Created by KiCad (PCBNEW 7.0.2-0) date 2024-12-21 14:04:36*
%MOMM*%
%LPD*%
G01*
G04 APERTURE LIST*
G04 Aperture macros list*
%AMRoundRect*
0 Rectangle with rounded corners*
0 $1 Rounding radius*
0 $2 $3 $4 $5 $6 $7 $8 $9 X,Y pos of 4 corners*
0 Add a 4 corners polygon primitive as box body*
4,1,4,$2,$3,$4,$5,$6,$7,$8,$9,$2,$3,0*
0 Add four circle primitives for the rounded corners*
1,1,$1+$1,$2,$3*
1,1,$1+$1,$4,$5*
1,1,$1+$1,$6,$7*
1,1,$1+$1,$8,$9*
0 Add four rect primitives between the rounded corners*
20,1,$1+$1,$2,$3,$4,$5,0*
20,1,$1+$1,$4,$5,$6,$7,0*
20,1,$1+$1,$6,$7,$8,$9,0*
20,1,$1+$1,$8,$9,$2,$3,0*%
G04 Aperture macros list end*
%ADD10RoundRect,0.250000X0.450000X-0.350000X0.450000X0.350000X-0.450000X0.350000X-0.450000X-0.350000X0*%
%ADD11RoundRect,0.250000X0.475000X-0.337500X0.475000X0.337500X-0.475000X0.337500X-0.475000X-0.337500X0*%
%ADD12RoundRect,0.150000X-0.825000X-0.150000X0.825000X-0.150000X0.825000X0.150000X-0.825000X0.150000X0*%
%ADD13RoundRect,0.250000X0.350000X0.450000X-0.350000X0.450000X-0.350000X-0.450000X0.350000X-0.450000X0*%
%ADD14RoundRect,0.250000X-0.337500X-0.475000X0.337500X-0.475000X0.337500X0.475000X-0.337500X0.475000X0*%
%ADD15RoundRect,0.150000X-0.875000X-0.150000X0.875000X-0.150000X0.875000X0.150000X-0.875000X0.150000X0*%
%ADD16RoundRect,0.250000X-0.475000X0.337500X-0.475000X-0.337500X0.475000X-0.337500X0.475000X0.337500X0*%
%ADD17RoundRect,0.150000X0.150000X-0.825000X0.150000X0.825000X-0.150000X0.825000X-0.150000X-0.825000X0*%
%ADD18RoundRect,0.150000X-0.150000X0.587500X-0.150000X-0.587500X0.150000X-0.587500X0.150000X0.587500X0*%
%ADD19RoundRect,0.250000X-0.450000X0.350000X-0.450000X-0.350000X0.450000X-0.350000X0.450000X0.350000X0*%
%ADD20RoundRect,0.250000X-0.350000X-0.450000X0.350000X-0.450000X0.350000X0.450000X-0.350000X0.450000X0*%
%ADD21RoundRect,0.250000X0.337500X0.475000X-0.337500X0.475000X-0.337500X-0.475000X0.337500X-0.475000X0*%
%ADD22RoundRect,0.150000X-0.750000X-0.150000X0.750000X-0.150000X0.750000X0.150000X-0.750000X0.150000X0*%
%ADD23RoundRect,0.150000X0.150000X-0.587500X0.150000X0.587500X-0.150000X0.587500X-0.150000X-0.587500X0*%
%ADD24RoundRect,0.150000X-0.512500X-0.150000X0.512500X-0.150000X0.512500X0.150000X-0.512500X0.150000X0*%
G04 APERTURE END LIST*
D10*
%TO.C,R501*%
X103124000Y-57642000D03*
X103124000Y-55642000D03*
%TD*%
D11*
%TO.C,C413*%
X180340000Y-116883000D03*
X180340000Y-114808000D03*
%TD*%
D12*
%TO.C,U104*%
X64967500Y-49149000D03*
X64967500Y-50419000D03*
X64967500Y-51689000D03*
X64967500Y-52959000D03*
X69917500Y-52959000D03*
X69917500Y-51689000D03*
X69917500Y-50419000D03*
X69917500Y-49149000D03*
%TD*%
D13*
%TO.C,R104*%
X64754000Y-129794000D03*
X62754000Y-129794000D03*
%TD*%
D14*
%TO.C,C202*%
X84560500Y-93472000D03*
X86635500Y-93472000D03*
%TD*%
D15*
%TO.C,U302*%
X192405000Y-52959000D03*
X192405000Y-54229000D03*
X192405000Y-55499000D03*
X192405000Y-56769000D03*
X192405000Y-58039000D03*
X192405000Y-59309000D03*
X192405000Y-60579000D03*
X192405000Y-61849000D03*
X192405000Y-63119000D03*
X192405000Y-64389000D03*
X201705000Y-64389000D03*
X201705000Y-63119000D03*
X201705000Y-61849000D03*
X201705000Y-60579000D03*
X201705000Y-59309000D03*
X201705000Y-58039000D03*
X201705000Y-56769000D03*
X201705000Y-55499000D03*
X201705000Y-54229000D03*
X201705000Y-52959000D03*
%TD*%
D11*
%TO.C,C107*%
X72268500Y-52853500D03*
X72268500Y-50778500D03*
%TD*%
D16*
%TO.C,C302*%
X204060000Y-69723000D03*
X204060000Y-71798000D03*
%TD*%
D17*
%TO.C,U103*%
X71374000Y-73090000D03*
X72644000Y-73090000D03*
X73914000Y-73090000D03*
X75184000Y-73090000D03*
X76454000Y-73090000D03*
X77724000Y-73090000D03*
X78994000Y-73090000D03*
X78994000Y-68140000D03*
X77724000Y-68140000D03*
X76454000Y-68140000D03*
X75184000Y-68140000D03*
X73914000Y-68140000D03*
X72644000Y-68140000D03*
X71374000Y-68140000D03*
%TD*%
D18*
%TO.C,Q101*%
X74234500Y-41813000D03*
X72334500Y-41813000D03*
X73284500Y-43688000D03*
%TD*%
D19*
%TO.C,R504*%
X89154000Y-61230000D03*
X89154000Y-63230000D03*
%TD*%
D16*
%TO.C,C505*%
X84582000Y-65764500D03*
X84582000Y-67839500D03*
%TD*%
D19*
%TO.C,R411*%
X185674000Y-114824000D03*
X185674000Y-116824000D03*
%TD*%
D10*
%TO.C,R406*%
X139446000Y-135112000D03*
X139446000Y-133112000D03*
%TD*%
D11*
%TO.C,C201*%
X46024800Y-97049500D03*
X46024800Y-94974500D03*
%TD*%
D17*
%TO.C,U504*%
X117602000Y-61911000D03*
X118872000Y-61911000D03*
X120142000Y-61911000D03*
X121412000Y-61911000D03*
X122682000Y-61911000D03*
X123952000Y-61911000D03*
X125222000Y-61911000D03*
X125222000Y-56961000D03*
X123952000Y-56961000D03*
X122682000Y-56961000D03*
X121412000Y-56961000D03*
X120142000Y-56961000D03*
X118872000Y-56961000D03*
X117602000Y-56961000D03*
%TD*%
%TO.C,U403*%
X157480000Y-127378000D03*
X158750000Y-127378000D03*
X160020000Y-127378000D03*
X161290000Y-127378000D03*
X162560000Y-127378000D03*
X163830000Y-127378000D03*
X165100000Y-127378000D03*
X165100000Y-122428000D03*
X163830000Y-122428000D03*
X162560000Y-122428000D03*
X161290000Y-122428000D03*
X160020000Y-122428000D03*
X158750000Y-122428000D03*
X157480000Y-122428000D03*
%TD*%
D16*
%TO.C,C412*%
X123698000Y-127740500D03*
X123698000Y-129815500D03*
%TD*%
D14*
%TO.C,C403*%
X157712500Y-120142000D03*
X159787500Y-120142000D03*
%TD*%
D11*
%TO.C,C203*%
X45974000Y-79037000D03*
X45974000Y-76962000D03*
%TD*%
D19*
%TO.C,R401*%
X139446000Y-140732000D03*
X139446000Y-142732000D03*
%TD*%
D16*
%TO.C,C301*%
X204089000Y-52937500D03*
X204089000Y-55012500D03*
%TD*%
D19*
%TO.C,R409*%
X136144000Y-136938000D03*
X136144000Y-138938000D03*
%TD*%
D10*
%TO.C,R403*%
X141478000Y-131303500D03*
X141478000Y-129303500D03*
%TD*%
D20*
%TO.C,R103*%
X72390000Y-39624000D03*
X74390000Y-39624000D03*
%TD*%
D21*
%TO.C,C204*%
X55999500Y-54381400D03*
X53924500Y-54381400D03*
%TD*%
D19*
%TO.C,R105*%
X46482000Y-133874000D03*
X46482000Y-135874000D03*
%TD*%
D10*
%TO.C,R414*%
X120396000Y-129778000D03*
X120396000Y-127778000D03*
%TD*%
%TO.C,R415*%
X177038000Y-116824000D03*
X177038000Y-114824000D03*
%TD*%
D22*
%TO.C,U204*%
X46176000Y-56896000D03*
X46176000Y-58166000D03*
X46176000Y-59436000D03*
X46176000Y-60706000D03*
X46176000Y-61976000D03*
X46176000Y-63246000D03*
X46176000Y-64516000D03*
X46176000Y-65786000D03*
X46176000Y-67056000D03*
X46176000Y-68326000D03*
X46176000Y-69596000D03*
X46176000Y-70866000D03*
X46176000Y-72136000D03*
X46176000Y-73406000D03*
X55776000Y-73406000D03*
X55776000Y-72136000D03*
X55776000Y-70866000D03*
X55776000Y-69596000D03*
X55776000Y-68326000D03*
X55776000Y-67056000D03*
X55776000Y-65786000D03*
X55776000Y-64516000D03*
X55776000Y-63246000D03*
X55776000Y-61976000D03*
X55776000Y-60706000D03*
X55776000Y-59436000D03*
X55776000Y-58166000D03*
X55776000Y-56896000D03*
%TD*%
D23*
%TO.C,D102*%
X57856500Y-49373000D03*
X59756500Y-49373000D03*
X58806500Y-47498000D03*
%TD*%
D16*
%TO.C,C401*%
X106426000Y-131550500D03*
X106426000Y-133625500D03*
%TD*%
D13*
%TO.C,R102*%
X59806500Y-51562000D03*
X57806500Y-51562000D03*
%TD*%
D10*
%TO.C,R405*%
X141478000Y-135112000D03*
X141478000Y-133112000D03*
%TD*%
D16*
%TO.C,C404*%
X141478000Y-136883000D03*
X141478000Y-138958000D03*
%TD*%
D11*
%TO.C,C408*%
X136144000Y-135149500D03*
X136144000Y-133074500D03*
%TD*%
D17*
%TO.C,U206*%
X59182000Y-73087000D03*
X60452000Y-73087000D03*
X61722000Y-73087000D03*
X62992000Y-73087000D03*
X64262000Y-73087000D03*
X65532000Y-73087000D03*
X66802000Y-73087000D03*
X66802000Y-68137000D03*
X65532000Y-68137000D03*
X64262000Y-68137000D03*
X62992000Y-68137000D03*
X61722000Y-68137000D03*
X60452000Y-68137000D03*
X59182000Y-68137000D03*
%TD*%
D11*
%TO.C,C108*%
X181610000Y-102907500D03*
X181610000Y-100832500D03*
%TD*%
D24*
%TO.C,U105*%
X72147000Y-47056000D03*
X72147000Y-48006000D03*
X72147000Y-48956000D03*
X74422000Y-48956000D03*
X74422000Y-48006000D03*
X74422000Y-47056000D03*
%TD*%
D14*
%TO.C,C205*%
X59160500Y-55245000D03*
X61235500Y-55245000D03*
%TD*%
%TO.C,C206*%
X59139000Y-65786000D03*
X61214000Y-65786000D03*
%TD*%
D19*
%TO.C,R402*%
X141478000Y-140732000D03*
X141478000Y-142732000D03*
%TD*%
%TO.C,R505*%
X92456000Y-61230000D03*
X92456000Y-63230000D03*
%TD*%
D16*
%TO.C,C407*%
X127000000Y-127740500D03*
X127000000Y-129815500D03*
%TD*%
D14*
%TO.C,C406*%
X157712500Y-118110000D03*
X159787500Y-118110000D03*
%TD*%
%TO.C,C501*%
X113749000Y-39584000D03*
X115824000Y-39584000D03*
%TD*%
D20*
%TO.C,R407*%
X157750000Y-116078000D03*
X159750000Y-116078000D03*
%TD*%
D16*
%TO.C,C411*%
X183642000Y-114786500D03*
X183642000Y-116861500D03*
%TD*%
D11*
%TO.C,C405*%
X139446000Y-138938000D03*
X139446000Y-136863000D03*
%TD*%
%TO.C,C410*%
X198628000Y-126259500D03*
X198628000Y-124184500D03*
%TD*%
D10*
%TO.C,R101*%
X56012500Y-49514000D03*
X56012500Y-47514000D03*
%TD*%
D14*
%TO.C,C506*%
X117813000Y-54610000D03*
X119888000Y-54610000D03*
%TD*%
D19*
%TO.C,R408*%
X129032000Y-127778000D03*
X129032000Y-129778000D03*
%TD*%
D21*
%TO.C,C402*%
X167640000Y-119888000D03*
X165565000Y-119888000D03*
%TD*%
D10*
%TO.C,R404*%
X139446000Y-131303500D03*
X139446000Y-129303500D03*
%TD*%
D20*
%TO.C,R410*%
X176530000Y-134366000D03*
X178530000Y-134366000D03*
%TD*%
D16*
%TO.C,C106*%
X62616500Y-50778500D03*
X62616500Y-52853500D03*
%TD*%
D19*
%TO.C,R503*%
X85852000Y-61230000D03*
X85852000Y-63230000D03*
%TD*%
D20*
%TO.C,R413*%
X102378000Y-128524000D03*
X104378000Y-128524000D03*
%TD*%
D19*
%TO.C,R412*%
X200660000Y-124222000D03*
X200660000Y-126222000D03*
%TD*%
D14*
%TO.C,C103*%
X101832500Y-109454000D03*
X103907500Y-109454000D03*
%TD*%
%TO.C,C101*%
X74125000Y-124968000D03*
X76200000Y-124968000D03*
%TD*%
%TO.C,C104*%
X71352500Y-65786000D03*
X73427500Y-65786000D03*
%TD*%
D17*
%TO.C,U205*%
X59182000Y-62608000D03*
X60452000Y-62608000D03*
X61722000Y-62608000D03*
X62992000Y-62608000D03*
X64262000Y-62608000D03*
X65532000Y-62608000D03*
X66802000Y-62608000D03*
X66802000Y-57658000D03*
X65532000Y-57658000D03*
X64262000Y-57658000D03*
X62992000Y-57658000D03*
X61722000Y-57658000D03*
X60452000Y-57658000D03*
X59182000Y-57658000D03*
%TD*%
D10*
%TO.C,R502*%
X78994000Y-53324000D03*
X78994000Y-51324000D03*
%TD*%
D15*
%TO.C,U303*%
X192376000Y-69723000D03*
X192376000Y-70993000D03*
X192376000Y-72263000D03*
X192376000Y-73533000D03*
X192376000Y-74803000D03*
X192376000Y-76073000D03*
X192376000Y-77343000D03*
X192376000Y-78613000D03*
X192376000Y-79883000D03*
X192376000Y-81153000D03*
X201676000Y-81153000D03*
X201676000Y-79883000D03*
X201676000Y-78613000D03*
X201676000Y-77343000D03*
X201676000Y-76073000D03*
X201676000Y-74803000D03*
X201676000Y-73533000D03*
X201676000Y-72263000D03*
X201676000Y-70993000D03*
X201676000Y-69723000D03*
%TD*%
D14*
%TO.C,C409*%
X180302500Y-134366000D03*
X182377500Y-134366000D03*
%TD*%
M02*
