%TF.GenerationSoftware,KiCad,Pcbnew,7.0.2-0*%
%TF.CreationDate,2024-12-21T14:04:37-08:00*%
%TF.ProjectId,CoPicoVision,436f5069-636f-4566-9973-696f6e2e6b69,2.0*%
%TF.SameCoordinates,Original*%
%TF.FileFunction,Soldermask,Top*%
%TF.FilePolarity,Negative*%
%FSLAX46Y46*%
G04 Gerber Fmt 4.6, Leading zero omitted, Abs format (unit mm)*
G04 Created by KiCad (PCBNEW 7.0.2-0) date 2024-12-21 14:04:37*
%MOMM*%
%LPD*%
G01*
G04 APERTURE LIST*
G04 Aperture macros list*
%AMRoundRect*
0 Rectangle with rounded corners*
0 $1 Rounding radius*
0 $2 $3 $4 $5 $6 $7 $8 $9 X,Y pos of 4 corners*
0 Add a 4 corners polygon primitive as box body*
4,1,4,$2,$3,$4,$5,$6,$7,$8,$9,$2,$3,0*
0 Add four circle primitives for the rounded corners*
1,1,$1+$1,$2,$3*
1,1,$1+$1,$4,$5*
1,1,$1+$1,$6,$7*
1,1,$1+$1,$8,$9*
0 Add four rect primitives between the rounded corners*
20,1,$1+$1,$2,$3,$4,$5,0*
20,1,$1+$1,$4,$5,$6,$7,0*
20,1,$1+$1,$6,$7,$8,$9,0*
20,1,$1+$1,$8,$9,$2,$3,0*%
G04 Aperture macros list end*
%ADD10RoundRect,0.250000X0.450000X-0.350000X0.450000X0.350000X-0.450000X0.350000X-0.450000X-0.350000X0*%
%ADD11R,2.200000X2.200000*%
%ADD12O,2.200000X2.200000*%
%ADD13RoundRect,0.250000X0.475000X-0.337500X0.475000X0.337500X-0.475000X0.337500X-0.475000X-0.337500X0*%
%ADD14O,1.800000X1.800000*%
%ADD15O,1.500000X1.500000*%
%ADD16O,1.700000X1.700000*%
%ADD17R,3.500000X1.700000*%
%ADD18R,1.700000X1.700000*%
%ADD19R,1.700000X3.500000*%
%ADD20RoundRect,0.150000X-0.825000X-0.150000X0.825000X-0.150000X0.825000X0.150000X-0.825000X0.150000X0*%
%ADD21RoundRect,0.250000X0.350000X0.450000X-0.350000X0.450000X-0.350000X-0.450000X0.350000X-0.450000X0*%
%ADD22RoundRect,0.250000X-0.337500X-0.475000X0.337500X-0.475000X0.337500X0.475000X-0.337500X0.475000X0*%
%ADD23R,1.050000X1.500000*%
%ADD24O,1.050000X1.500000*%
%ADD25RoundRect,0.150000X-0.875000X-0.150000X0.875000X-0.150000X0.875000X0.150000X-0.875000X0.150000X0*%
%ADD26C,2.000000*%
%ADD27RoundRect,0.250000X-0.475000X0.337500X-0.475000X-0.337500X0.475000X-0.337500X0.475000X0.337500X0*%
%ADD28RoundRect,0.150000X0.150000X-0.825000X0.150000X0.825000X-0.150000X0.825000X-0.150000X-0.825000X0*%
%ADD29R,1.600000X1.600000*%
%ADD30O,1.600000X1.600000*%
%ADD31RoundRect,0.150000X-0.150000X0.587500X-0.150000X-0.587500X0.150000X-0.587500X0.150000X0.587500X0*%
%ADD32RoundRect,0.250000X-0.450000X0.350000X-0.450000X-0.350000X0.450000X-0.350000X0.450000X0.350000X0*%
%ADD33C,1.600000*%
%ADD34C,3.500000*%
%ADD35O,1.200000X2.200000*%
%ADD36O,2.200000X1.200000*%
%ADD37C,0.700000*%
%ADD38O,0.900000X2.400000*%
%ADD39O,0.900000X1.700000*%
%ADD40RoundRect,0.250000X-0.350000X-0.450000X0.350000X-0.450000X0.350000X0.450000X-0.350000X0.450000X0*%
%ADD41RoundRect,0.250000X0.337500X0.475000X-0.337500X0.475000X-0.337500X-0.475000X0.337500X-0.475000X0*%
%ADD42C,4.000000*%
%ADD43RoundRect,0.150000X-0.750000X-0.150000X0.750000X-0.150000X0.750000X0.150000X-0.750000X0.150000X0*%
%ADD44RoundRect,0.150000X0.150000X-0.587500X0.150000X0.587500X-0.150000X0.587500X-0.150000X-0.587500X0*%
%ADD45RoundRect,0.150000X-0.512500X-0.150000X0.512500X-0.150000X0.512500X0.150000X-0.512500X0.150000X0*%
%ADD46R,1.800000X1.800000*%
%ADD47C,1.800000*%
G04 APERTURE END LIST*
D10*
%TO.C,R501*%
X103124000Y-57642000D03*
X103124000Y-55642000D03*
%TD*%
D11*
%TO.C,D401*%
X106680000Y-129032000D03*
D12*
X116840000Y-129032000D03*
%TD*%
D13*
%TO.C,C413*%
X180340000Y-116883000D03*
X180340000Y-114808000D03*
%TD*%
D14*
%TO.C,U301*%
X175456000Y-40150000D03*
D15*
X175756000Y-43180000D03*
X180606000Y-43180000D03*
D14*
X180906000Y-40150000D03*
D16*
X169291000Y-40020000D03*
D17*
X168391000Y-40020000D03*
D16*
X169291000Y-42560000D03*
D17*
X168391000Y-42560000D03*
D18*
X169291000Y-45100000D03*
D17*
X168391000Y-45100000D03*
D16*
X169291000Y-47640000D03*
D17*
X168391000Y-47640000D03*
D16*
X169291000Y-50180000D03*
D17*
X168391000Y-50180000D03*
D16*
X169291000Y-52720000D03*
D17*
X168391000Y-52720000D03*
D16*
X169291000Y-55260000D03*
D17*
X168391000Y-55260000D03*
D18*
X169291000Y-57800000D03*
D17*
X168391000Y-57800000D03*
D16*
X169291000Y-60340000D03*
D17*
X168391000Y-60340000D03*
D16*
X169291000Y-62880000D03*
D17*
X168391000Y-62880000D03*
D16*
X169291000Y-65420000D03*
D17*
X168391000Y-65420000D03*
D16*
X169291000Y-67960000D03*
D17*
X168391000Y-67960000D03*
D18*
X169291000Y-70500000D03*
D17*
X168391000Y-70500000D03*
D16*
X169291000Y-73040000D03*
D17*
X168391000Y-73040000D03*
D16*
X169291000Y-75580000D03*
D17*
X168391000Y-75580000D03*
D16*
X169291000Y-78120000D03*
D17*
X168391000Y-78120000D03*
D16*
X169291000Y-80660000D03*
D17*
X168391000Y-80660000D03*
D18*
X169291000Y-83200000D03*
D17*
X168391000Y-83200000D03*
D16*
X169291000Y-85740000D03*
D17*
X168391000Y-85740000D03*
D16*
X169291000Y-88280000D03*
D17*
X168391000Y-88280000D03*
D16*
X187071000Y-88280000D03*
D17*
X187971000Y-88280000D03*
D16*
X187071000Y-85740000D03*
D17*
X187971000Y-85740000D03*
D18*
X187071000Y-83200000D03*
D17*
X187971000Y-83200000D03*
D16*
X187071000Y-80660000D03*
D17*
X187971000Y-80660000D03*
D16*
X187071000Y-78120000D03*
D17*
X187971000Y-78120000D03*
D16*
X187071000Y-75580000D03*
D17*
X187971000Y-75580000D03*
D16*
X187071000Y-73040000D03*
D17*
X187971000Y-73040000D03*
D18*
X187071000Y-70500000D03*
D17*
X187971000Y-70500000D03*
D16*
X187071000Y-67960000D03*
D17*
X187971000Y-67960000D03*
D16*
X187071000Y-65420000D03*
D17*
X187971000Y-65420000D03*
D16*
X187071000Y-62880000D03*
D17*
X187971000Y-62880000D03*
D16*
X187071000Y-60340000D03*
D17*
X187971000Y-60340000D03*
D18*
X187071000Y-57800000D03*
D17*
X187971000Y-57800000D03*
D16*
X187071000Y-55260000D03*
D17*
X187971000Y-55260000D03*
D16*
X187071000Y-52720000D03*
D17*
X187971000Y-52720000D03*
D16*
X187071000Y-50180000D03*
D17*
X187971000Y-50180000D03*
D16*
X187071000Y-47640000D03*
D17*
X187971000Y-47640000D03*
D18*
X187071000Y-45100000D03*
D17*
X187971000Y-45100000D03*
D16*
X187071000Y-42560000D03*
D17*
X187971000Y-42560000D03*
D16*
X187071000Y-40020000D03*
D17*
X187971000Y-40020000D03*
D16*
X175641000Y-88050000D03*
D19*
X175641000Y-88950000D03*
D18*
X178181000Y-88050000D03*
D19*
X178181000Y-88950000D03*
D16*
X180721000Y-88050000D03*
D19*
X180721000Y-88950000D03*
%TD*%
D20*
%TO.C,U104*%
X64967500Y-49149000D03*
X64967500Y-50419000D03*
X64967500Y-51689000D03*
X64967500Y-52959000D03*
X69917500Y-52959000D03*
X69917500Y-51689000D03*
X69917500Y-50419000D03*
X69917500Y-49149000D03*
%TD*%
D21*
%TO.C,R104*%
X64754000Y-129794000D03*
X62754000Y-129794000D03*
%TD*%
D22*
%TO.C,C202*%
X84560500Y-93472000D03*
X86635500Y-93472000D03*
%TD*%
D23*
%TO.C,Q402*%
X189230000Y-115930000D03*
D24*
X190500000Y-115930000D03*
X191770000Y-115930000D03*
%TD*%
D25*
%TO.C,U302*%
X192405000Y-52959000D03*
X192405000Y-54229000D03*
X192405000Y-55499000D03*
X192405000Y-56769000D03*
X192405000Y-58039000D03*
X192405000Y-59309000D03*
X192405000Y-60579000D03*
X192405000Y-61849000D03*
X192405000Y-63119000D03*
X192405000Y-64389000D03*
X201705000Y-64389000D03*
X201705000Y-63119000D03*
X201705000Y-61849000D03*
X201705000Y-60579000D03*
X201705000Y-59309000D03*
X201705000Y-58039000D03*
X201705000Y-56769000D03*
X201705000Y-55499000D03*
X201705000Y-54229000D03*
X201705000Y-52959000D03*
%TD*%
D26*
%TO.C,SW102*%
X56948000Y-139228000D03*
X63448000Y-139228000D03*
X56948000Y-143728000D03*
X63448000Y-143728000D03*
%TD*%
D13*
%TO.C,C107*%
X72268500Y-52853500D03*
X72268500Y-50778500D03*
%TD*%
D27*
%TO.C,C302*%
X204060000Y-69723000D03*
X204060000Y-71798000D03*
%TD*%
D28*
%TO.C,U103*%
X71374000Y-73090000D03*
X72644000Y-73090000D03*
X73914000Y-73090000D03*
X75184000Y-73090000D03*
X76454000Y-73090000D03*
X77724000Y-73090000D03*
X78994000Y-73090000D03*
X78994000Y-68140000D03*
X77724000Y-68140000D03*
X76454000Y-68140000D03*
X75184000Y-68140000D03*
X73914000Y-68140000D03*
X72644000Y-68140000D03*
X71374000Y-68140000D03*
%TD*%
D29*
%TO.C,D101*%
X56388000Y-133858000D03*
D30*
X64008000Y-133858000D03*
%TD*%
D31*
%TO.C,Q101*%
X74234500Y-41813000D03*
X72334500Y-41813000D03*
X73284500Y-43688000D03*
%TD*%
D29*
%TO.C,RN101*%
X81788000Y-125730000D03*
D30*
X84328000Y-125730000D03*
X86868000Y-125730000D03*
X89408000Y-125730000D03*
X91948000Y-125730000D03*
%TD*%
D32*
%TO.C,R504*%
X89154000Y-61230000D03*
X89154000Y-63230000D03*
%TD*%
D27*
%TO.C,C505*%
X84582000Y-65764500D03*
X84582000Y-67839500D03*
%TD*%
D32*
%TO.C,R411*%
X185674000Y-114824000D03*
X185674000Y-116824000D03*
%TD*%
D29*
%TO.C,C503*%
X96266000Y-57618000D03*
D33*
X96266000Y-55118000D03*
%TD*%
D29*
%TO.C,U401*%
X109220000Y-140208000D03*
D30*
X111760000Y-140208000D03*
X114300000Y-140208000D03*
X116840000Y-140208000D03*
X119380000Y-140208000D03*
X121920000Y-140208000D03*
X124460000Y-140208000D03*
X127000000Y-140208000D03*
X129540000Y-140208000D03*
X132080000Y-140208000D03*
X132080000Y-132588000D03*
X129540000Y-132588000D03*
X127000000Y-132588000D03*
X124460000Y-132588000D03*
X121920000Y-132588000D03*
X119380000Y-132588000D03*
X116840000Y-132588000D03*
X114300000Y-132588000D03*
X111760000Y-132588000D03*
X109220000Y-132588000D03*
%TD*%
D29*
%TO.C,RN306*%
X161556000Y-60960000D03*
D30*
X159016000Y-60960000D03*
X156476000Y-60960000D03*
X153936000Y-60960000D03*
X151396000Y-60960000D03*
X148856000Y-60960000D03*
X146316000Y-60960000D03*
X143776000Y-60960000D03*
%TD*%
D10*
%TO.C,R406*%
X139446000Y-135112000D03*
X139446000Y-133112000D03*
%TD*%
D13*
%TO.C,C201*%
X46024800Y-97049500D03*
X46024800Y-94974500D03*
%TD*%
D28*
%TO.C,U504*%
X117602000Y-61911000D03*
X118872000Y-61911000D03*
X120142000Y-61911000D03*
X121412000Y-61911000D03*
X122682000Y-61911000D03*
X123952000Y-61911000D03*
X125222000Y-61911000D03*
X125222000Y-56961000D03*
X123952000Y-56961000D03*
X122682000Y-56961000D03*
X121412000Y-56961000D03*
X120142000Y-56961000D03*
X118872000Y-56961000D03*
X117602000Y-56961000D03*
%TD*%
%TO.C,U403*%
X157480000Y-127378000D03*
X158750000Y-127378000D03*
X160020000Y-127378000D03*
X161290000Y-127378000D03*
X162560000Y-127378000D03*
X163830000Y-127378000D03*
X165100000Y-127378000D03*
X165100000Y-122428000D03*
X163830000Y-122428000D03*
X162560000Y-122428000D03*
X161290000Y-122428000D03*
X160020000Y-122428000D03*
X158750000Y-122428000D03*
X157480000Y-122428000D03*
%TD*%
D34*
%TO.C,H108*%
X200660000Y-118110000D03*
%TD*%
D29*
%TO.C,RN401*%
X109220000Y-143510000D03*
D30*
X111760000Y-143510000D03*
X114300000Y-143510000D03*
X116840000Y-143510000D03*
X119380000Y-143510000D03*
X121920000Y-143510000D03*
X124460000Y-143510000D03*
X127000000Y-143510000D03*
%TD*%
D27*
%TO.C,C412*%
X123698000Y-127740500D03*
X123698000Y-129815500D03*
%TD*%
D29*
%TO.C,RN301*%
X161556000Y-57658000D03*
D30*
X159016000Y-57658000D03*
X156476000Y-57658000D03*
X153936000Y-57658000D03*
X151396000Y-57658000D03*
X148856000Y-57658000D03*
X146316000Y-57658000D03*
X143776000Y-57658000D03*
%TD*%
D18*
%TO.C,J102*%
X141732000Y-99330000D03*
D16*
X141732000Y-104410000D03*
X144272000Y-99330000D03*
X144272000Y-104410000D03*
X146812000Y-99330000D03*
X146812000Y-104410000D03*
X149352000Y-99330000D03*
X149352000Y-104410000D03*
X151892000Y-99330000D03*
X151892000Y-104410000D03*
X154432000Y-99330000D03*
X154432000Y-104410000D03*
X156972000Y-99330000D03*
X156972000Y-104410000D03*
X159512000Y-99330000D03*
X159512000Y-104410000D03*
X162052000Y-99330000D03*
X162052000Y-104410000D03*
X164592000Y-99330000D03*
X164592000Y-104410000D03*
X167132000Y-99330000D03*
X167132000Y-104410000D03*
X169672000Y-99330000D03*
X169672000Y-104410000D03*
X172212000Y-99330000D03*
X172212000Y-104410000D03*
X174752000Y-99330000D03*
X174752000Y-104410000D03*
X177292000Y-99330000D03*
X177292000Y-104410000D03*
%TD*%
D22*
%TO.C,C403*%
X157712500Y-120142000D03*
X159787500Y-120142000D03*
%TD*%
D13*
%TO.C,C203*%
X45974000Y-79037000D03*
X45974000Y-76962000D03*
%TD*%
D32*
%TO.C,R401*%
X139446000Y-140732000D03*
X139446000Y-142732000D03*
%TD*%
D35*
%TO.C,J501*%
X102710000Y-47352600D03*
D36*
X97710000Y-42352600D03*
D35*
X92710000Y-47352600D03*
%TD*%
D34*
%TO.C,H104*%
X200660000Y-141478000D03*
%TD*%
D27*
%TO.C,C301*%
X204089000Y-52937500D03*
X204089000Y-55012500D03*
%TD*%
D37*
%TO.C,J101*%
X61527500Y-43903000D03*
X60677500Y-43903000D03*
X59827500Y-43903000D03*
X58977500Y-43903000D03*
X58127500Y-43903000D03*
X57277500Y-43903000D03*
X56427500Y-43903000D03*
X55577500Y-43903000D03*
X55577500Y-42553000D03*
X56427500Y-42553000D03*
X57277500Y-42553000D03*
X58127500Y-42553000D03*
X58977500Y-42553000D03*
X59827500Y-42553000D03*
X60677500Y-42553000D03*
X61527500Y-42553000D03*
D38*
X62877500Y-42923000D03*
D39*
X62877500Y-39543000D03*
D38*
X54227500Y-42923000D03*
D39*
X54227500Y-39543000D03*
%TD*%
D32*
%TO.C,R409*%
X136144000Y-136938000D03*
X136144000Y-138938000D03*
%TD*%
D10*
%TO.C,R403*%
X141478000Y-131303500D03*
X141478000Y-129303500D03*
%TD*%
D40*
%TO.C,R103*%
X72390000Y-39624000D03*
X74390000Y-39624000D03*
%TD*%
D41*
%TO.C,C204*%
X55999500Y-54381400D03*
X53924500Y-54381400D03*
%TD*%
D32*
%TO.C,R105*%
X46482000Y-133874000D03*
X46482000Y-135874000D03*
%TD*%
D29*
%TO.C,RN402*%
X177800000Y-130810000D03*
D30*
X180340000Y-130810000D03*
X182880000Y-130810000D03*
X185420000Y-130810000D03*
X187960000Y-130810000D03*
X190500000Y-130810000D03*
X193040000Y-130810000D03*
X195580000Y-130810000D03*
%TD*%
D29*
%TO.C,U501*%
X105918000Y-42378000D03*
D30*
X105918000Y-44918000D03*
X105918000Y-47458000D03*
X105918000Y-49998000D03*
X105918000Y-52538000D03*
X105918000Y-55078000D03*
X105918000Y-57618000D03*
X105918000Y-60158000D03*
X113538000Y-60158000D03*
X113538000Y-57618000D03*
X113538000Y-55078000D03*
X113538000Y-52538000D03*
X113538000Y-49998000D03*
X113538000Y-47458000D03*
X113538000Y-44918000D03*
X113538000Y-42378000D03*
%TD*%
D42*
%TO.C,J301*%
X159803600Y-48999000D03*
X134803600Y-48999000D03*
D29*
X142988600Y-50419000D03*
D33*
X145278600Y-50419000D03*
X147568600Y-50419000D03*
X149858600Y-50419000D03*
X152148600Y-50419000D03*
X141843600Y-48439000D03*
X144133600Y-48439000D03*
X146423600Y-48439000D03*
X148713600Y-48439000D03*
X151003600Y-48439000D03*
X142988600Y-46459000D03*
X145278600Y-46459000D03*
X147568600Y-46459000D03*
X149858600Y-46459000D03*
X152148600Y-46459000D03*
%TD*%
D23*
%TO.C,U102*%
X67310000Y-133710000D03*
D24*
X68580000Y-133710000D03*
X69850000Y-133710000D03*
%TD*%
D11*
%TO.C,D301*%
X192925000Y-40259000D03*
D12*
X192925000Y-50419000D03*
%TD*%
D10*
%TO.C,R414*%
X120396000Y-129778000D03*
X120396000Y-127778000D03*
%TD*%
%TO.C,R415*%
X177038000Y-116824000D03*
X177038000Y-114824000D03*
%TD*%
D29*
%TO.C,C504*%
X86868000Y-42886000D03*
D33*
X86868000Y-40386000D03*
%TD*%
D43*
%TO.C,U204*%
X46176000Y-56896000D03*
X46176000Y-58166000D03*
X46176000Y-59436000D03*
X46176000Y-60706000D03*
X46176000Y-61976000D03*
X46176000Y-63246000D03*
X46176000Y-64516000D03*
X46176000Y-65786000D03*
X46176000Y-67056000D03*
X46176000Y-68326000D03*
X46176000Y-69596000D03*
X46176000Y-70866000D03*
X46176000Y-72136000D03*
X46176000Y-73406000D03*
X55776000Y-73406000D03*
X55776000Y-72136000D03*
X55776000Y-70866000D03*
X55776000Y-69596000D03*
X55776000Y-68326000D03*
X55776000Y-67056000D03*
X55776000Y-65786000D03*
X55776000Y-64516000D03*
X55776000Y-63246000D03*
X55776000Y-61976000D03*
X55776000Y-60706000D03*
X55776000Y-59436000D03*
X55776000Y-58166000D03*
X55776000Y-56896000D03*
%TD*%
D44*
%TO.C,D102*%
X57856500Y-49373000D03*
X59756500Y-49373000D03*
X58806500Y-47498000D03*
%TD*%
D29*
%TO.C,U202*%
X83312000Y-103886000D03*
D30*
X85852000Y-103886000D03*
X88392000Y-103886000D03*
X90932000Y-103886000D03*
X93472000Y-103886000D03*
X96012000Y-103886000D03*
X98552000Y-103886000D03*
X101092000Y-103886000D03*
X103632000Y-103886000D03*
X106172000Y-103886000D03*
X108712000Y-103886000D03*
X111252000Y-103886000D03*
X111252000Y-96266000D03*
X108712000Y-96266000D03*
X106172000Y-96266000D03*
X103632000Y-96266000D03*
X101092000Y-96266000D03*
X98552000Y-96266000D03*
X96012000Y-96266000D03*
X93472000Y-96266000D03*
X90932000Y-96266000D03*
X88392000Y-96266000D03*
X85852000Y-96266000D03*
X83312000Y-96266000D03*
%TD*%
D23*
%TO.C,Q401*%
X132588000Y-128630000D03*
D24*
X133858000Y-128630000D03*
X135128000Y-128630000D03*
%TD*%
D34*
%TO.C,H103*%
X200660000Y-44196000D03*
%TD*%
D27*
%TO.C,C401*%
X106426000Y-131550500D03*
X106426000Y-133625500D03*
%TD*%
D29*
%TO.C,U101*%
X48768000Y-122428000D03*
D30*
X51308000Y-122428000D03*
X53848000Y-122428000D03*
X56388000Y-122428000D03*
X58928000Y-122428000D03*
X61468000Y-122428000D03*
X64008000Y-122428000D03*
X66548000Y-122428000D03*
X69088000Y-122428000D03*
X71628000Y-122428000D03*
X74168000Y-122428000D03*
X76708000Y-122428000D03*
X79248000Y-122428000D03*
X81788000Y-122428000D03*
X84328000Y-122428000D03*
X86868000Y-122428000D03*
X89408000Y-122428000D03*
X91948000Y-122428000D03*
X94488000Y-122428000D03*
X97028000Y-122428000D03*
X97028000Y-107188000D03*
X94488000Y-107188000D03*
X91948000Y-107188000D03*
X89408000Y-107188000D03*
X86868000Y-107188000D03*
X84328000Y-107188000D03*
X81788000Y-107188000D03*
X79248000Y-107188000D03*
X76708000Y-107188000D03*
X74168000Y-107188000D03*
X71628000Y-107188000D03*
X69088000Y-107188000D03*
X66548000Y-107188000D03*
X64008000Y-107188000D03*
X61468000Y-107188000D03*
X58928000Y-107188000D03*
X56388000Y-107188000D03*
X53848000Y-107188000D03*
X51308000Y-107188000D03*
X48768000Y-107188000D03*
%TD*%
D21*
%TO.C,R102*%
X59806500Y-51562000D03*
X57806500Y-51562000D03*
%TD*%
D29*
%TO.C,C502*%
X118618000Y-42926000D03*
D33*
X118618000Y-45426000D03*
%TD*%
D11*
%TO.C,D402*%
X163068000Y-116586000D03*
D12*
X173228000Y-116586000D03*
%TD*%
D34*
%TO.C,H101*%
X47498000Y-44196000D03*
%TD*%
D10*
%TO.C,R405*%
X141478000Y-135112000D03*
X141478000Y-133112000D03*
%TD*%
D27*
%TO.C,C404*%
X141478000Y-136883000D03*
X141478000Y-138958000D03*
%TD*%
D29*
%TO.C,U201*%
X48768000Y-103886000D03*
D30*
X51308000Y-103886000D03*
X53848000Y-103886000D03*
X56388000Y-103886000D03*
X58928000Y-103886000D03*
X61468000Y-103886000D03*
X64008000Y-103886000D03*
X66548000Y-103886000D03*
X69088000Y-103886000D03*
X71628000Y-103886000D03*
X74168000Y-103886000D03*
X76708000Y-103886000D03*
X76708000Y-96266000D03*
X74168000Y-96266000D03*
X71628000Y-96266000D03*
X69088000Y-96266000D03*
X66548000Y-96266000D03*
X64008000Y-96266000D03*
X61468000Y-96266000D03*
X58928000Y-96266000D03*
X56388000Y-96266000D03*
X53848000Y-96266000D03*
X51308000Y-96266000D03*
X48768000Y-96266000D03*
%TD*%
D42*
%TO.C,J401*%
X75475000Y-133350000D03*
X100475000Y-133350000D03*
D29*
X82435000Y-131930000D03*
D33*
X85205000Y-131930000D03*
X87975000Y-131930000D03*
X90745000Y-131930000D03*
X93515000Y-131930000D03*
X83820000Y-134770000D03*
X86590000Y-134770000D03*
X89360000Y-134770000D03*
X92130000Y-134770000D03*
%TD*%
D13*
%TO.C,C408*%
X136144000Y-135149500D03*
X136144000Y-133074500D03*
%TD*%
D28*
%TO.C,U206*%
X59182000Y-73087000D03*
X60452000Y-73087000D03*
X61722000Y-73087000D03*
X62992000Y-73087000D03*
X64262000Y-73087000D03*
X65532000Y-73087000D03*
X66802000Y-73087000D03*
X66802000Y-68137000D03*
X65532000Y-68137000D03*
X64262000Y-68137000D03*
X62992000Y-68137000D03*
X61722000Y-68137000D03*
X60452000Y-68137000D03*
X59182000Y-68137000D03*
%TD*%
D13*
%TO.C,C108*%
X181610000Y-102907500D03*
X181610000Y-100832500D03*
%TD*%
D45*
%TO.C,U105*%
X72147000Y-47056000D03*
X72147000Y-48006000D03*
X72147000Y-48956000D03*
X74422000Y-48956000D03*
X74422000Y-48006000D03*
X74422000Y-47056000D03*
%TD*%
D22*
%TO.C,C205*%
X59160500Y-55245000D03*
X61235500Y-55245000D03*
%TD*%
%TO.C,C206*%
X59139000Y-65786000D03*
X61214000Y-65786000D03*
%TD*%
D29*
%TO.C,U402*%
X170180000Y-127508000D03*
D30*
X172720000Y-127508000D03*
X175260000Y-127508000D03*
X177800000Y-127508000D03*
X180340000Y-127508000D03*
X182880000Y-127508000D03*
X185420000Y-127508000D03*
X187960000Y-127508000D03*
X190500000Y-127508000D03*
X193040000Y-127508000D03*
X193040000Y-119888000D03*
X190500000Y-119888000D03*
X187960000Y-119888000D03*
X185420000Y-119888000D03*
X182880000Y-119888000D03*
X180340000Y-119888000D03*
X177800000Y-119888000D03*
X175260000Y-119888000D03*
X172720000Y-119888000D03*
X170180000Y-119888000D03*
%TD*%
D32*
%TO.C,R402*%
X141478000Y-140732000D03*
X141478000Y-142732000D03*
%TD*%
%TO.C,R505*%
X92456000Y-61230000D03*
X92456000Y-63230000D03*
%TD*%
D27*
%TO.C,C407*%
X127000000Y-127740500D03*
X127000000Y-129815500D03*
%TD*%
D22*
%TO.C,C406*%
X157712500Y-118110000D03*
X159787500Y-118110000D03*
%TD*%
%TO.C,C501*%
X113749000Y-39584000D03*
X115824000Y-39584000D03*
%TD*%
D26*
%TO.C,SW101*%
X184710000Y-139228000D03*
X191210000Y-139228000D03*
X184710000Y-143728000D03*
X191210000Y-143728000D03*
%TD*%
D40*
%TO.C,R407*%
X157750000Y-116078000D03*
X159750000Y-116078000D03*
%TD*%
D27*
%TO.C,C411*%
X183642000Y-114786500D03*
X183642000Y-116861500D03*
%TD*%
D29*
%TO.C,RN305*%
X161556000Y-54330600D03*
D30*
X159016000Y-54330600D03*
X156476000Y-54330600D03*
X153936000Y-54330600D03*
X151396000Y-54330600D03*
X148856000Y-54330600D03*
X146316000Y-54330600D03*
X143776000Y-54330600D03*
%TD*%
D13*
%TO.C,C405*%
X139446000Y-138938000D03*
X139446000Y-136863000D03*
%TD*%
D29*
%TO.C,U503*%
X87376000Y-81026000D03*
D30*
X89916000Y-81026000D03*
X92456000Y-81026000D03*
X94996000Y-81026000D03*
X97536000Y-81026000D03*
X100076000Y-81026000D03*
X102616000Y-81026000D03*
X105156000Y-81026000D03*
X107696000Y-81026000D03*
X110236000Y-81026000D03*
X112776000Y-81026000D03*
X115316000Y-81026000D03*
X117856000Y-81026000D03*
X120396000Y-81026000D03*
X122936000Y-81026000D03*
X125476000Y-81026000D03*
X128016000Y-81026000D03*
X130556000Y-81026000D03*
X133096000Y-81026000D03*
X135636000Y-81026000D03*
X135636000Y-65786000D03*
X133096000Y-65786000D03*
X130556000Y-65786000D03*
X128016000Y-65786000D03*
X125476000Y-65786000D03*
X122936000Y-65786000D03*
X120396000Y-65786000D03*
X117856000Y-65786000D03*
X115316000Y-65786000D03*
X112776000Y-65786000D03*
X110236000Y-65786000D03*
X107696000Y-65786000D03*
X105156000Y-65786000D03*
X102616000Y-65786000D03*
X100076000Y-65786000D03*
X97536000Y-65786000D03*
X94996000Y-65786000D03*
X92456000Y-65786000D03*
X89916000Y-65786000D03*
X87376000Y-65786000D03*
%TD*%
D29*
%TO.C,RN307*%
X161556000Y-67564000D03*
D30*
X159016000Y-67564000D03*
X156476000Y-67564000D03*
X153936000Y-67564000D03*
X151396000Y-67564000D03*
X148856000Y-67564000D03*
X146316000Y-67564000D03*
X143776000Y-67564000D03*
%TD*%
D29*
%TO.C,RN302*%
X164934200Y-45212000D03*
D30*
X164934200Y-47752000D03*
X164934200Y-50292000D03*
X164934200Y-52832000D03*
X164934200Y-55372000D03*
X164934200Y-57912000D03*
X164934200Y-60452000D03*
X164934200Y-62992000D03*
%TD*%
D13*
%TO.C,C410*%
X198628000Y-126259500D03*
X198628000Y-124184500D03*
%TD*%
D34*
%TO.C,H102*%
X47498000Y-141478000D03*
%TD*%
D29*
%TO.C,U502*%
X81788000Y-48260000D03*
D30*
X81788000Y-50800000D03*
X81788000Y-53340000D03*
X81788000Y-55880000D03*
X89408000Y-55880000D03*
X89408000Y-53340000D03*
X89408000Y-50800000D03*
X89408000Y-48260000D03*
%TD*%
D29*
%TO.C,C105*%
X66514121Y-43180000D03*
D33*
X69014121Y-43180000D03*
%TD*%
D10*
%TO.C,R101*%
X56012500Y-49514000D03*
X56012500Y-47514000D03*
%TD*%
D34*
%TO.C,H106*%
X118618000Y-118110000D03*
%TD*%
D22*
%TO.C,C506*%
X117813000Y-54610000D03*
X119888000Y-54610000D03*
%TD*%
D34*
%TO.C,H107*%
X200660000Y-87630000D03*
%TD*%
D32*
%TO.C,R408*%
X129032000Y-127778000D03*
X129032000Y-129778000D03*
%TD*%
D42*
%TO.C,J402*%
X147212000Y-133281669D03*
X172212000Y-133281669D03*
D29*
X154172000Y-131861669D03*
D33*
X156942000Y-131861669D03*
X159712000Y-131861669D03*
X162482000Y-131861669D03*
X165252000Y-131861669D03*
X155557000Y-134701669D03*
X158327000Y-134701669D03*
X161097000Y-134701669D03*
X163867000Y-134701669D03*
%TD*%
D41*
%TO.C,C402*%
X167640000Y-119888000D03*
X165565000Y-119888000D03*
%TD*%
D29*
%TO.C,U203*%
X48768000Y-92964000D03*
D30*
X51308000Y-92964000D03*
X53848000Y-92964000D03*
X56388000Y-92964000D03*
X58928000Y-92964000D03*
X61468000Y-92964000D03*
X64008000Y-92964000D03*
X66548000Y-92964000D03*
X69088000Y-92964000D03*
X71628000Y-92964000D03*
X74168000Y-92964000D03*
X76708000Y-92964000D03*
X79248000Y-92964000D03*
X81788000Y-92964000D03*
X81788000Y-77724000D03*
X79248000Y-77724000D03*
X76708000Y-77724000D03*
X74168000Y-77724000D03*
X71628000Y-77724000D03*
X69088000Y-77724000D03*
X66548000Y-77724000D03*
X64008000Y-77724000D03*
X61468000Y-77724000D03*
X58928000Y-77724000D03*
X56388000Y-77724000D03*
X53848000Y-77724000D03*
X51308000Y-77724000D03*
X48768000Y-77724000D03*
%TD*%
D10*
%TO.C,R404*%
X139446000Y-131303500D03*
X139446000Y-129303500D03*
%TD*%
D40*
%TO.C,R410*%
X176530000Y-134366000D03*
X178530000Y-134366000D03*
%TD*%
D27*
%TO.C,C106*%
X62616500Y-50778500D03*
X62616500Y-52853500D03*
%TD*%
D32*
%TO.C,R503*%
X85852000Y-61230000D03*
X85852000Y-63230000D03*
%TD*%
D40*
%TO.C,R413*%
X102378000Y-128524000D03*
X104378000Y-128524000D03*
%TD*%
D29*
%TO.C,RN304*%
X161556000Y-64262000D03*
D30*
X159016000Y-64262000D03*
X156476000Y-64262000D03*
X153936000Y-64262000D03*
X151396000Y-64262000D03*
X148856000Y-64262000D03*
X146316000Y-64262000D03*
X143776000Y-64262000D03*
%TD*%
D46*
%TO.C,D103*%
X68580000Y-140203000D03*
D47*
X68580000Y-142743000D03*
%TD*%
D29*
%TO.C,RN303*%
X164908800Y-66548000D03*
D30*
X164908800Y-69088000D03*
X164908800Y-71628000D03*
X164908800Y-74168000D03*
X164908800Y-76708000D03*
X164908800Y-79248000D03*
X164908800Y-81788000D03*
X164908800Y-84328000D03*
%TD*%
D29*
%TO.C,C102*%
X52832000Y-132334000D03*
D33*
X50332000Y-132334000D03*
%TD*%
D32*
%TO.C,R412*%
X200660000Y-124222000D03*
X200660000Y-126222000D03*
%TD*%
D22*
%TO.C,C103*%
X101832500Y-109454000D03*
X103907500Y-109454000D03*
%TD*%
%TO.C,C101*%
X74125000Y-124968000D03*
X76200000Y-124968000D03*
%TD*%
%TO.C,C104*%
X71352500Y-65786000D03*
X73427500Y-65786000D03*
%TD*%
D28*
%TO.C,U205*%
X59182000Y-62608000D03*
X60452000Y-62608000D03*
X61722000Y-62608000D03*
X62992000Y-62608000D03*
X64262000Y-62608000D03*
X65532000Y-62608000D03*
X66802000Y-62608000D03*
X66802000Y-57658000D03*
X65532000Y-57658000D03*
X64262000Y-57658000D03*
X62992000Y-57658000D03*
X61722000Y-57658000D03*
X60452000Y-57658000D03*
X59182000Y-57658000D03*
%TD*%
D34*
%TO.C,H105*%
X118618000Y-87630000D03*
%TD*%
D10*
%TO.C,R502*%
X78994000Y-53324000D03*
X78994000Y-51324000D03*
%TD*%
D25*
%TO.C,U303*%
X192376000Y-69723000D03*
X192376000Y-70993000D03*
X192376000Y-72263000D03*
X192376000Y-73533000D03*
X192376000Y-74803000D03*
X192376000Y-76073000D03*
X192376000Y-77343000D03*
X192376000Y-78613000D03*
X192376000Y-79883000D03*
X192376000Y-81153000D03*
X201676000Y-81153000D03*
X201676000Y-79883000D03*
X201676000Y-78613000D03*
X201676000Y-77343000D03*
X201676000Y-76073000D03*
X201676000Y-74803000D03*
X201676000Y-73533000D03*
X201676000Y-72263000D03*
X201676000Y-70993000D03*
X201676000Y-69723000D03*
%TD*%
D29*
%TO.C,X101*%
X102870000Y-121158000D03*
D33*
X110490000Y-121158000D03*
X110490000Y-113538000D03*
X102870000Y-113538000D03*
%TD*%
D22*
%TO.C,C409*%
X180302500Y-134366000D03*
X182377500Y-134366000D03*
%TD*%
M02*
