M48
; DRILL file {KiCad 7.0.2-0} date 2024 December 21, Saturday 14:01:27
; FORMAT={-:-/ absolute / inch / decimal}
; #@! TF.CreationDate,2024-12-21T14:01:27-08:00
; #@! TF.GenerationSoftware,Kicad,Pcbnew,7.0.2-0
; #@! TF.FileFunction,Plated,1,4,PTH
FMAT,2
INCH
; #@! TA.AperFunction,Plated,PTH,ViaDrill
T1C0.0157
; #@! TA.AperFunction,Plated,PTH,ComponentDrill
T2C0.0157
; #@! TA.AperFunction,Plated,PTH,ComponentDrill
T3C0.0236
; #@! TA.AperFunction,Plated,PTH,ComponentDrill
T4C0.0295
; #@! TA.AperFunction,Plated,PTH,ComponentDrill
T5C0.0315
; #@! TA.AperFunction,Plated,PTH,ComponentDrill
T6C0.0354
; #@! TA.AperFunction,Plated,PTH,ComponentDrill
T7C0.0394
; #@! TA.AperFunction,Plated,PTH,ComponentDrill
T8C0.0402
; #@! TA.AperFunction,Plated,PTH,ComponentDrill
T9C0.0433
; #@! TA.AperFunction,Plated,PTH,ComponentDrill
T10C0.1260
%
G90
G05
T1
X1.681Y-2.164
X1.69Y-2.12
X1.7107Y-5.0393
X1.79Y-4.64
X1.8Y-3.87
X1.84Y-4.81
X1.86Y-3.01
X1.86Y-4.1
X1.8738Y-3.3338
X1.8785Y-3.1733
X1.9Y-4.8751
X1.93Y-4.55
X1.94Y-3.9
X1.9757Y-4.42
X2.0Y-3.16
X2.0Y-3.6
X2.0066Y-3.8435
X2.03Y-3.98
X2.03Y-4.32
X2.03Y-4.55
X2.04Y-2.78
X2.09Y-3.12
X2.1Y-3.94
X2.102Y-4.9036
X2.12Y-3.46
X2.12Y-4.39
X2.16Y-1.99
X2.1643Y-3.22
X2.17Y-4.29
X2.1757Y-5.41
X2.22Y-3.46
X2.23Y-4.98
X2.252Y-3.9262
X2.2531Y-4.0459
X2.2643Y-3.22
X2.29Y-4.01
X2.29Y-4.55
X2.31Y-3.46
X2.33Y-3.85
X2.35Y-4.04
X2.35Y-4.29
X2.3643Y-3.17
X2.41Y-3.46
X2.41Y-3.53
X2.43Y-4.15
X2.45Y-4.04
X2.51Y-3.87
X2.52Y-3.25
X2.52Y-3.41
X2.54Y-4.0385
X2.54Y-4.58
X2.57Y-4.29
X2.61Y-3.6
X2.61Y-5.56
X2.62Y-4.56
X2.63Y-3.12
X2.65Y-4.15
X2.65Y-5.1
X2.66Y-4.02
X2.68Y-3.8412
X2.69Y-3.88
X2.71Y-2.86
X2.71Y-4.02
X2.72Y-4.53
X2.7251Y-3.5595
X2.73Y-4.46
X2.75Y-4.15
X2.76Y-1.87
X2.7757Y-2.49
X2.785Y-1.837
X2.79Y-3.74
X2.793Y-5.6233
X2.7938Y-4.0413
X2.7955Y-3.9666
X2.799Y-2.16
X2.7995Y-3.8412
X2.8Y-3.29
X2.81Y-3.13
X2.82Y-4.36
X2.83Y-5.09
X2.83Y-5.69
X2.8585Y-5.6457
X2.87Y-4.28
X2.87Y-4.73
X2.871Y-5.683
X2.8853Y-4.0445
X2.89Y-3.29
X2.92Y-2.61
X2.9348Y-3.8448
X2.9629Y-3.9825
X2.97Y-3.13
X2.97Y-5.67
X2.9995Y-3.7388
X3.0179Y-4.737
X3.02Y-3.54
X3.02Y-4.68
X3.07Y-5.6815
X3.0912Y-3.9958
X3.11Y-5.34
X3.1123Y-3.9343
X3.12Y-3.28
X3.16Y-5.77
X3.1662Y-3.582
X3.2Y-4.51
X3.2042Y-3.9808
X3.22Y-4.76
X3.22Y-5.139
X3.2246Y-4.2766
X3.24Y-5.4615
X3.25Y-4.16
X3.266Y-3.603
X3.2763Y-3.9562
X3.28Y-5.0015
X3.316Y-3.822
X3.333Y-2.439
X3.3373Y-5.1418
X3.35Y-5.53
X3.36Y-5.41
X3.37Y-4.27
X3.37Y-5.09
X3.4268Y-4.3531
X3.43Y-3.81
X3.46Y-5.38
X3.49Y-4.52
X3.51Y-2.92
X3.52Y-5.09
X3.52Y-5.5985
X3.55Y-4.4485
X3.57Y-1.65
X3.57Y-4.65
X3.58Y-5.44
X3.6Y-3.73
X3.62Y-3.82
X3.63Y-5.71
X3.6365Y-4.3282
X3.7Y-5.4261
X3.71Y-5.34
X3.72Y-3.52
X3.7364Y-5.2008
X3.75Y-3.73
X3.77Y-4.3546
X3.77Y-5.02
X3.79Y-2.82
X3.82Y-3.25
X3.8748Y-4.3615
X3.91Y-4.0084
X3.97Y-4.31
X3.98Y-4.39
X4.0Y-3.95
X4.049Y-2.811
X4.05Y-2.92
X4.05Y-3.01
X4.05Y-3.1
X4.05Y-3.2
X4.05Y-3.61
X4.05Y-3.71
X4.11Y-3.45
X4.11Y-4.32
X4.11Y-4.4
X4.1222Y-3.7545
X4.14Y-3.36
X4.15Y-3.87
X4.15Y-4.51
X4.16Y-5.75
X4.1658Y-5.0488
X4.18Y-5.53
X4.1855Y-5.3376
X4.1936Y-4.3615
X4.2Y-4.6
X4.2587Y-2.5833
X4.27Y-4.75
X4.2715Y-2.5461
X4.3Y-4.85
X4.3115Y-1.9652
X4.32Y-3.23
X4.32Y-4.0359
X4.32Y-5.08
X4.3414Y-3.6882
X4.35Y-4.0644
X4.36Y-5.01
X4.3686Y-2.5109
X4.3897Y-3.9507
X4.4221Y-3.9729
X4.4382Y-3.5897
X4.4382Y-3.6911
X4.45Y-4.16
X4.47Y-2.67
X4.484Y-5.0792
X4.49Y-4.0615
X4.53Y-4.95
X4.5325Y-5.3044
X4.55Y-3.23
X4.59Y-3.8
X4.7Y-5.3
X4.781Y-5.448
X4.85Y-4.96
X4.85Y-5.728
X4.87Y-2.87
X4.879Y-5.441
X4.88Y-4.5
X4.9482Y-5.5585
X4.95Y-3.31
X4.99Y-2.96
X4.99Y-3.41
X5.02Y-3.05
X5.02Y-3.36
X5.04Y-5.44
X5.05Y-5.56
X5.074Y-5.704
X5.1Y-5.05
X5.12Y-3.26
X5.16Y-5.61
X5.16Y-5.72
X5.23Y-5.6672
X5.2632Y-5.7418
X5.4067Y-5.6672
X5.41Y-5.13
X5.43Y-4.65
X5.45Y-4.24
X5.54Y-4.88
X5.6Y-2.58
X5.6Y-5.05
X5.61Y-4.66
X5.65Y-3.17
X5.77Y-5.1273
X5.78Y-3.68
X5.7906Y-4.2815
X5.799Y-2.569
X5.81Y-4.81
X5.86Y-2.463
X5.882Y-3.316
X5.91Y-2.46
X5.91Y-4.88
X5.9268Y-4.3415
X5.94Y-2.96
X5.94Y-3.07
X5.94Y-3.14
X5.95Y-5.48
X5.98Y-2.33
X6.0Y-4.84
X6.0Y-5.29
X6.0048Y-4.4115
X6.01Y-3.08
X6.05Y-2.96
X6.07Y-3.21
X6.07Y-3.58
X6.09Y-2.91
X6.09Y-3.01
X6.1Y-3.11
X6.11Y-3.7015
X6.121Y-2.161
X6.124Y-2.858
X6.13Y-3.36
X6.2166Y-2.7717
X6.23Y-5.22
X6.2387Y-4.4685
X6.25Y-4.81
X6.3072Y-4.3615
X6.33Y-5.59
X6.3948Y-2.7256
X6.4Y-3.33
X6.4085Y-4.6064
X6.42Y-2.34
X6.42Y-2.89
X6.43Y-4.04
X6.44Y-4.63
X6.4545Y-3.7685
X6.46Y-2.22
X6.46Y-4.48
X6.493Y-3.7768
X6.51Y-2.43
X6.53Y-3.4
X6.54Y-4.04
X6.54Y-4.93
X6.63Y-3.33
X6.64Y-4.39
X6.74Y-3.6
X6.74Y-4.31
X6.78Y-4.44
X6.85Y-4.36
X6.86Y-3.74
X6.88Y-4.04
X6.93Y-3.86
X6.95Y-4.35
X6.959Y-3.03
X6.959Y-3.3699
X6.9875Y-3.4101
X6.99Y-2.93
X6.9993Y-3.825
X7.01Y-5.67
X7.05Y-4.77
X7.05Y-4.97
X7.06Y-3.8
X7.1798Y-3.1498
X7.18Y-5.7
X7.1857Y-4.2794
X7.19Y-5.2405
X7.2Y-3.24
X7.2Y-4.8
X7.2326Y-4.2728
X7.24Y-3.2
X7.25Y-4.84
X7.27Y-2.81
X7.28Y-3.24
X7.28Y-3.8
X7.3102Y-2.3008
X7.32Y-3.17
X7.32Y-3.84
X7.34Y-2.53
X7.3416Y-2.4579
X7.36Y-3.87
X7.37Y-2.38
X7.37Y-2.64
X7.37Y-3.16
X7.38Y-2.26
X7.38Y-4.24
X7.4Y-2.74
X7.41Y-4.21
X7.42Y-2.83
X7.45Y-3.93
X7.47Y-2.42
X7.5594Y-3.2685
X7.57Y-4.86
X7.5865Y-4.1815
X7.6Y-2.47
X7.6Y-5.34
X7.6105Y-2.58
X7.65Y-4.21
X7.69Y-4.24
X7.69Y-5.37
X7.7Y-2.35
X7.72Y-2.62
X7.73Y-4.28
X7.75Y-2.72
X7.76Y-2.83
X7.76Y-3.2
X7.78Y-3.24
X7.79Y-2.92
X7.82Y-3.03
X7.82Y-3.17
X8.05Y-3.27
X8.05Y-5.37
T2
X2.1881Y-1.6753
X2.1881Y-1.7285
X2.2216Y-1.6753
X2.2216Y-1.7285
X2.255Y-1.6753
X2.255Y-1.7285
X2.2885Y-1.6753
X2.2885Y-1.7285
X2.3219Y-1.6753
X2.3219Y-1.7285
X2.3554Y-1.6753
X2.3554Y-1.7285
X2.3889Y-1.6753
X2.3889Y-1.7285
X2.4223Y-1.6753
X2.4223Y-1.7285
T4
X2.65Y-5.2642
X2.7Y-5.2642
X2.75Y-5.2642
X4.21Y-4.9442
X4.26Y-4.9442
X4.31Y-4.9442
X7.45Y-4.5642
X7.5Y-4.5642
X7.55Y-4.5642
T5
X1.79Y-2.2308
X1.79Y-2.3292
X1.79Y-2.9608
X1.79Y-3.0592
X1.79Y-3.6908
X1.79Y-3.7892
X1.82Y-5.05
X1.82Y-5.35
X1.92Y-2.33
X1.92Y-2.93
X1.92Y-3.06
X1.92Y-3.66
X1.92Y-3.79
X1.92Y-4.09
X1.92Y-4.22
X1.92Y-4.82
X1.9816Y-5.21
X2.02Y-2.33
X2.02Y-2.93
X2.02Y-3.06
X2.02Y-3.66
X2.02Y-3.79
X2.02Y-4.09
X2.02Y-4.22
X2.02Y-4.82
X2.08Y-5.21
X2.12Y-2.33
X2.12Y-2.93
X2.12Y-3.06
X2.12Y-3.66
X2.12Y-3.79
X2.12Y-4.09
X2.12Y-4.22
X2.12Y-4.82
X2.22Y-2.33
X2.22Y-2.93
X2.22Y-3.06
X2.22Y-3.66
X2.22Y-3.79
X2.22Y-4.09
X2.22Y-4.22
X2.22Y-4.82
X2.22Y-5.11
X2.22Y-5.27
X2.32Y-2.33
X2.32Y-2.93
X2.32Y-3.06
X2.32Y-3.66
X2.32Y-3.79
X2.32Y-4.09
X2.32Y-4.22
X2.32Y-4.82
X2.42Y-2.33
X2.42Y-2.93
X2.42Y-3.06
X2.42Y-3.66
X2.42Y-3.79
X2.42Y-4.09
X2.42Y-4.22
X2.42Y-4.82
X2.52Y-2.33
X2.52Y-2.93
X2.52Y-3.06
X2.52Y-3.66
X2.52Y-3.79
X2.52Y-4.09
X2.52Y-4.22
X2.52Y-4.82
X2.52Y-5.11
X2.52Y-5.27
X2.6187Y-1.7
X2.62Y-2.33
X2.62Y-2.93
X2.62Y-3.06
X2.62Y-3.66
X2.62Y-3.79
X2.62Y-4.09
X2.62Y-4.22
X2.62Y-4.82
X2.7171Y-1.7
X2.72Y-2.33
X2.72Y-2.93
X2.72Y-3.06
X2.72Y-3.66
X2.72Y-3.79
X2.72Y-4.09
X2.72Y-4.22
X2.72Y-4.82
X2.82Y-2.33
X2.82Y-2.93
X2.82Y-3.06
X2.82Y-3.66
X2.82Y-3.79
X2.82Y-4.09
X2.82Y-4.22
X2.82Y-4.82
X2.92Y-2.33
X2.92Y-2.93
X2.92Y-3.06
X2.92Y-3.66
X2.92Y-3.79
X2.92Y-4.09
X2.92Y-4.22
X2.92Y-4.82
X2.9208Y-4.95
X3.0192Y-4.95
X3.02Y-2.33
X3.02Y-2.93
X3.02Y-3.06
X3.02Y-3.66
X3.02Y-3.79
X3.02Y-4.09
X3.02Y-4.22
X3.02Y-4.82
X3.11Y-5.01
X3.12Y-2.33
X3.12Y-2.93
X3.12Y-3.06
X3.12Y-3.66
X3.12Y-4.22
X3.12Y-4.82
X3.22Y-1.9
X3.22Y-2.0
X3.22Y-2.1
X3.22Y-2.2
X3.22Y-2.33
X3.22Y-2.93
X3.22Y-3.06
X3.22Y-3.66
X3.22Y-4.22
X3.22Y-4.82
X3.32Y-4.22
X3.32Y-4.82
X3.41Y-2.4298
X3.41Y-2.5298
X3.41Y-2.6298
X3.41Y-2.7298
X3.41Y-2.8298
X3.41Y-2.9298
X3.41Y-3.0298
X3.41Y-3.4208
X3.41Y-3.5192
X3.41Y-3.68
X3.41Y-3.98
X3.41Y-5.01
X3.42Y-1.59
X3.42Y-1.6884
X3.42Y-4.22
X3.42Y-4.82
X3.5008Y-5.01
X3.52Y-1.9
X3.52Y-2.0
X3.52Y-2.1
X3.52Y-2.2
X3.52Y-4.22
X3.52Y-4.82
X3.5992Y-5.01
X3.62Y-4.22
X3.62Y-4.82
X3.71Y-2.4298
X3.71Y-2.5298
X3.71Y-2.6298
X3.71Y-2.7298
X3.71Y-2.8298
X3.71Y-2.9298
X3.71Y-3.0298
X3.71Y-3.68
X3.71Y-3.98
X3.72Y-4.22
X3.72Y-4.82
X3.79Y-2.17
X3.79Y-2.2684
X3.82Y-4.22
X3.82Y-4.82
X3.84Y-2.4306
X3.84Y-2.529
X3.9Y-2.71
X3.9Y-2.81
X3.9Y-2.91
X3.9Y-3.01
X3.9Y-3.11
X3.9Y-3.21
X3.9Y-3.31
X3.9Y-3.41
X3.9Y-3.51
X3.9Y-3.61
X3.9Y-3.71
X3.9Y-3.81
X4.05Y-4.12
X4.05Y-4.22
X4.05Y-4.32
X4.05Y-4.42
X4.05Y-4.52
X4.17Y-1.76
X4.17Y-1.86
X4.17Y-1.96
X4.17Y-2.06
X4.17Y-2.16
X4.17Y-2.26
X4.17Y-2.36
X4.17Y-2.46
X4.17Y-5.1216
X4.17Y-5.22
X4.2Y-2.71
X4.2Y-2.81
X4.2Y-2.91
X4.2Y-3.01
X4.2Y-3.11
X4.2Y-3.21
X4.2Y-3.31
X4.2Y-3.41
X4.2Y-3.51
X4.2Y-3.61
X4.2Y-3.71
X4.2Y-3.81
X4.3Y-5.22
X4.3Y-5.52
X4.3Y-5.65
X4.33Y-2.7108
X4.33Y-2.8092
X4.4Y-5.22
X4.4Y-5.52
X4.4Y-5.65
X4.43Y-4.5
X4.43Y-4.8
X4.43Y-4.8908
X4.43Y-4.9892
X4.43Y-5.09
X4.47Y-1.76
X4.47Y-1.86
X4.47Y-1.96
X4.47Y-2.06
X4.47Y-2.16
X4.47Y-2.26
X4.47Y-2.36
X4.47Y-2.46
X4.4708Y-1.63
X4.5Y-5.22
X4.5Y-5.52
X4.5Y-5.65
X4.5692Y-1.63
X4.6Y-5.22
X4.6Y-5.52
X4.6Y-5.65
X4.6008Y-4.91
X4.67Y-1.8116
X4.67Y-1.91
X4.6992Y-4.91
X4.7Y-5.22
X4.7Y-5.52
X4.7Y-5.65
X4.73Y-5.09
X4.8Y-5.22
X4.8Y-5.52
X4.8Y-5.65
X4.8208Y-5.09
X4.9Y-5.22
X4.9Y-5.52
X4.9Y-5.65
X4.9192Y-5.09
X5.0Y-5.22
X5.0Y-5.52
X5.0Y-5.65
X5.1Y-5.22
X5.1Y-5.52
X5.18Y-4.72
X5.18Y-5.02
X5.2Y-5.22
X5.2Y-5.52
X5.34Y-2.139
X5.34Y-2.27
X5.34Y-2.4
X5.34Y-2.53
X5.34Y-2.66
X5.36Y-4.72
X5.36Y-5.02
X5.38Y-3.29
X5.38Y-3.54
X5.41Y-5.44
X5.41Y-5.74
X5.44Y-2.139
X5.44Y-2.27
X5.44Y-2.4
X5.44Y-2.53
X5.44Y-2.66
X5.4408Y-4.59
X5.5008Y-4.72
X5.5392Y-4.59
X5.54Y-2.139
X5.54Y-2.27
X5.54Y-2.4
X5.54Y-2.53
X5.54Y-2.66
X5.54Y-5.14
X5.54Y-5.44
X5.5992Y-4.72
X5.63Y-4.59
X5.64Y-2.139
X5.64Y-2.27
X5.64Y-2.4
X5.64Y-2.53
X5.64Y-2.66
X5.68Y-3.29
X5.68Y-3.54
X5.71Y-4.7196
X5.71Y-5.0196
X5.74Y-2.139
X5.74Y-2.27
X5.74Y-2.4
X5.74Y-2.53
X5.74Y-2.66
X5.79Y-3.26
X5.79Y-3.56
X5.81Y-4.7196
X5.81Y-5.0196
X5.84Y-2.139
X5.84Y-2.27
X5.84Y-2.4
X5.84Y-2.53
X5.84Y-2.66
X5.91Y-4.7196
X5.91Y-5.0196
X5.93Y-4.59
X5.94Y-2.139
X5.94Y-2.27
X5.94Y-2.4
X5.94Y-2.53
X5.94Y-2.66
X6.01Y-4.7196
X6.01Y-5.0196
X6.0208Y-4.59
X6.04Y-2.139
X6.04Y-2.27
X6.04Y-2.4
X6.04Y-2.53
X6.04Y-2.66
X6.11Y-4.7196
X6.11Y-5.0196
X6.1192Y-4.59
X6.172Y-2.62
X6.172Y-2.72
X6.172Y-2.82
X6.172Y-2.92
X6.172Y-3.02
X6.172Y-3.12
X6.172Y-3.22
X6.172Y-3.32
X6.173Y-1.78
X6.173Y-1.88
X6.173Y-1.98
X6.173Y-2.08
X6.173Y-2.18
X6.173Y-2.28
X6.173Y-2.38
X6.173Y-2.48
X6.21Y-4.59
X6.21Y-4.7196
X6.21Y-5.0196
X6.31Y-4.7196
X6.31Y-5.0196
X6.4908Y-4.72
X6.51Y-4.59
X6.5892Y-4.72
X6.6008Y-4.59
X6.6992Y-4.59
X6.7Y-4.72
X6.7Y-5.02
X6.8Y-4.72
X6.8Y-5.02
X6.8508Y-4.59
X6.9Y-4.72
X6.9Y-5.02
X6.9492Y-4.59
X6.97Y-5.28
X7.0Y-4.72
X7.0Y-5.02
X7.0Y-5.15
X7.04Y-4.59
X7.1Y-4.72
X7.1Y-5.02
X7.1Y-5.15
X7.2Y-4.72
X7.2Y-5.02
X7.2Y-5.15
X7.22Y-1.9802
X7.22Y-2.0802
X7.22Y-2.1802
X7.22Y-2.2802
X7.22Y-2.3802
X7.22Y-2.4802
X7.22Y-2.5802
X7.22Y-2.6802
X7.22Y-2.7802
X7.22Y-2.8802
X7.27Y-5.28
X7.3Y-4.72
X7.3Y-5.02
X7.3Y-5.15
X7.34Y-4.59
X7.3608Y-5.28
X7.4Y-4.72
X7.4Y-5.02
X7.4Y-5.15
X7.4592Y-5.28
X7.5Y-4.72
X7.5Y-5.02
X7.5Y-5.15
X7.52Y-1.9802
X7.52Y-2.0802
X7.52Y-2.1802
X7.52Y-2.2802
X7.52Y-2.3802
X7.52Y-2.4802
X7.52Y-2.5802
X7.52Y-2.6802
X7.52Y-2.7802
X7.52Y-2.8802
X7.6Y-4.72
X7.6Y-5.02
X7.6Y-5.15
X7.65Y-1.9808
X7.65Y-2.0792
X7.65Y-2.22
X7.65Y-2.32
X7.65Y-2.42
X7.65Y-2.52
X7.65Y-2.62
X7.65Y-2.72
X7.65Y-2.82
X7.65Y-2.92
X7.65Y-3.02
X7.65Y-3.12
X7.7Y-5.15
X7.78Y-4.8708
X7.78Y-4.9692
X7.95Y-2.22
X7.95Y-2.32
X7.95Y-2.42
X7.95Y-2.52
X7.95Y-2.62
X7.95Y-2.72
X7.95Y-2.82
X7.95Y-2.92
X7.95Y-3.02
X7.95Y-3.12
X7.9508Y-2.09
X7.96Y-4.87
X7.96Y-5.17
X8.0492Y-2.09
T6
X2.7Y-5.5198
X2.7Y-5.6198
T7
X3.2455Y-5.1941
X3.3Y-5.3059
X3.3545Y-5.1941
X3.4091Y-5.3059
X3.4636Y-5.1941
X3.5181Y-5.3059
X3.5726Y-5.1941
X3.6272Y-5.3059
X3.6817Y-5.1941
X5.2639Y-1.907
X5.309Y-1.8291
X5.309Y-1.985
X5.3541Y-1.907
X5.3992Y-1.8291
X5.3992Y-1.985
X5.4442Y-1.907
X5.4893Y-1.8291
X5.4893Y-1.985
X5.5344Y-1.907
X5.5795Y-1.8291
X5.5795Y-1.985
X5.58Y-3.9106
X5.58Y-4.1106
X5.6246Y-1.907
X5.6696Y-1.8291
X5.6696Y-1.985
X5.68Y-3.9106
X5.68Y-4.1106
X5.78Y-3.9106
X5.78Y-4.1106
X5.88Y-3.9106
X5.88Y-4.1106
X5.98Y-3.9106
X5.98Y-4.1106
X6.0698Y-5.1914
X6.08Y-3.9106
X6.08Y-4.1106
X6.1243Y-5.3032
X6.1788Y-5.1914
X6.18Y-3.9106
X6.18Y-4.1106
X6.2333Y-5.3032
X6.28Y-3.9106
X6.28Y-4.1106
X6.2879Y-5.1914
X6.3424Y-5.3032
X6.38Y-3.9106
X6.38Y-4.1106
X6.3969Y-5.1914
X6.4515Y-5.3032
X6.48Y-3.9106
X6.48Y-4.1106
X6.506Y-5.1914
X6.58Y-3.9106
X6.58Y-4.1106
X6.68Y-3.9106
X6.68Y-4.1106
X6.78Y-3.9106
X6.78Y-4.1106
X6.88Y-3.9106
X6.88Y-4.1106
X6.98Y-3.9106
X6.98Y-4.1106
T8
X6.3445Y-1.5756
X6.3445Y-1.6756
X6.3445Y-1.7756
X6.3445Y-1.8756
X6.3445Y-1.9756
X6.3445Y-2.0756
X6.3445Y-2.1756
X6.3445Y-2.2756
X6.3445Y-2.3756
X6.3445Y-2.4756
X6.3445Y-2.5756
X6.3445Y-2.6756
X6.3445Y-2.7756
X6.3445Y-2.8756
X6.3445Y-2.9756
X6.3445Y-3.0756
X6.3445Y-3.1756
X6.3445Y-3.2756
X6.3445Y-3.3756
X6.3445Y-3.4756
X6.5945Y-3.4665
X6.6945Y-3.4665
X6.7945Y-3.4665
X7.0445Y-1.5756
X7.0445Y-1.6756
X7.0445Y-1.7756
X7.0445Y-1.8756
X7.0445Y-1.9756
X7.0445Y-2.0756
X7.0445Y-2.1756
X7.0445Y-2.2756
X7.0445Y-2.3756
X7.0445Y-2.4756
X7.0445Y-2.5756
X7.0445Y-2.6756
X7.0445Y-2.7756
X7.0445Y-2.8756
X7.0445Y-2.9756
X7.0445Y-3.0756
X7.0445Y-3.1756
X7.0445Y-3.2756
X7.0445Y-3.3756
X7.0445Y-3.4756
T9
X2.242Y-5.4814
X2.242Y-5.6586
X2.498Y-5.4814
X2.498Y-5.6586
X4.88Y-3.29
X4.88Y-3.54
X5.28Y-3.29
X5.28Y-3.54
X7.22Y-1.65
X7.272Y-5.4814
X7.272Y-5.6586
X7.528Y-5.4814
X7.528Y-5.6586
X7.62Y-1.65
T10
X2.9715Y-5.25
X3.9557Y-5.25
X4.9868Y-1.9291
X5.7957Y-5.2473
X5.971Y-1.9291
X6.78Y-5.2473
T2
G00X3.65Y-1.8446
M15
G01X3.65Y-1.884
M16
G05
G00X3.8665Y-1.6674
M15
G01X3.8272Y-1.6674
M16
G05
G00X4.0437Y-1.884
M15
G01X4.0437Y-1.8446
M16
G05
T3
G00X2.1349Y-1.5726
M15
G01X2.1349Y-1.5411
M16
G05
G00X2.1349Y-1.7194
M15
G01X2.1349Y-1.6604
M16
G05
G00X2.4755Y-1.5726
M15
G01X2.4755Y-1.5411
M16
G05
G00X2.4755Y-1.7194
M15
G01X2.4755Y-1.6604
M16
G05
T0
M30
