M48
; DRILL file {KiCad 7.0.2-0} date 2024 December 21, Saturday 14:04:40
; FORMAT={-:-/ absolute / inch / decimal}
; #@! TF.CreationDate,2024-12-21T14:04:40-08:00
; #@! TF.GenerationSoftware,Kicad,Pcbnew,7.0.2-0
; #@! TF.FileFunction,Plated,1,4,PTH
FMAT,2
INCH
; #@! TA.AperFunction,Plated,PTH,ViaDrill
T1C0.0157
; #@! TA.AperFunction,Plated,PTH,ComponentDrill
T2C0.0157
; #@! TA.AperFunction,Plated,PTH,ComponentDrill
T3C0.0236
; #@! TA.AperFunction,Plated,PTH,ComponentDrill
T4C0.0295
; #@! TA.AperFunction,Plated,PTH,ComponentDrill
T5C0.0315
; #@! TA.AperFunction,Plated,PTH,ComponentDrill
T6C0.0354
; #@! TA.AperFunction,Plated,PTH,ComponentDrill
T7C0.0394
; #@! TA.AperFunction,Plated,PTH,ComponentDrill
T8C0.0402
; #@! TA.AperFunction,Plated,PTH,ComponentDrill
T9C0.0433
; #@! TA.AperFunction,Plated,PTH,ComponentDrill
T10C0.1260
%
G90
G05
T1
X1.681Y-2.164
X1.6877Y-2.117
X1.71Y-3.65
X1.7107Y-5.0393
X1.745Y-2.185
X1.745Y-4.555
X1.7487Y-3.6081
X1.7494Y-3.5687
X1.76Y-2.245
X1.7697Y-3.535
X1.78Y-4.41
X1.7865Y-3.4994
X1.8052Y-3.4648
X1.8073Y-3.5618
X1.8227Y-3.4295
X1.8295Y-4.44
X1.8389Y-3.5382
X1.84Y-4.92
X1.85Y-3.4
X1.865Y-4.955
X1.88Y-3.37
X1.88Y-3.5341
X1.8865Y-3.1898
X1.8865Y-3.8654
X1.8876Y-2.8618
X1.895Y-2.345
X1.895Y-2.39
X1.895Y-2.44
X1.895Y-2.49
X1.895Y-2.545
X1.895Y-2.59
X1.895Y-2.64
X1.9043Y-2.8262
X1.91Y-4.33
X1.9124Y-2.7025
X1.92Y-4.93
X1.93Y-3.155
X1.9301Y-2.768
X1.945Y-3.845
X1.945Y-4.025
X1.945Y-4.3
X1.945Y-4.625
X1.955Y-3.01
X1.96Y-3.745
X1.965Y-2.285
X1.9757Y-4.36
X1.98Y-3.16
X1.9935Y-2.8971
X2.0057Y-3.886
X2.02Y-4.44
X2.03Y-3.15
X2.03Y-4.6
X2.045Y-2.34
X2.05Y-3.01
X2.0681Y-2.845
X2.075Y-3.15
X2.0885Y-4.41
X2.09Y-2.48
X2.11Y-3.89
X2.11Y-4.015
X2.1148Y-3.614
X2.12Y-2.24
X2.1215Y-4.525
X2.125Y-2.64
X2.1251Y-2.795
X2.13Y-3.13
X2.1415Y-4.4548
X2.1415Y-4.6368
X2.1492Y-3.0133
X2.1519Y-3.3366
X2.16Y-1.99
X2.165Y-2.2
X2.17Y-5.01
X2.1719Y-3.5963
X2.18Y-3.15
X2.2082Y-3.4738
X2.215Y-3.87
X2.215Y-4.015
X2.216Y-3.9757
X2.225Y-4.555
X2.2418Y-4.6885
X2.255Y-2.39
X2.255Y-2.44
X2.26Y-2.75
X2.278Y-3.5847
X2.28Y-2.69
X2.2828Y-3.1245
X2.2865Y-3.4915
X2.2924Y-2.6333
X2.295Y-3.855
X2.295Y-4.015
X2.3115Y-4.5578
X2.327Y-3.5934
X2.33Y-2.335
X2.33Y-3.98
X2.3347Y-2.745
X2.3379Y-3.8559
X2.34Y-4.67
X2.3594Y-4.7182
X2.36Y-2.95
X2.375Y-2.33
X2.375Y-2.4062
X2.39Y-3.12
X2.3915Y-2.8152
X2.4Y-2.12
X2.405Y-2.52
X2.41Y-3.95
X2.41Y-5.11
X2.4136Y-3.4915
X2.4197Y-3.5502
X2.42Y-4.015
X2.42Y-4.35
X2.42Y-4.43
X2.43Y-3.59
X2.4448Y-3.1429
X2.4515Y-2.9492
X2.4556Y-2.2145
X2.4587Y-2.5523
X2.4699Y-4.7262
X2.47Y-2.59
X2.47Y-3.52
X2.48Y-2.15
X2.49Y-3.12
X2.5085Y-2.7406
X2.51Y-4.495
X2.5132Y-2.5275
X2.5167Y-3.4728
X2.5185Y-3.272
X2.52Y-3.85
X2.52Y-3.95
X2.521Y-2.6193
X2.5244Y-5.0285
X2.5344Y-4.6061
X2.5381Y-2.815
X2.54Y-1.85
X2.55Y-3.74
X2.5524Y-2.5248
X2.5598Y-3.6098
X2.5778Y-3.2837
X2.58Y-2.745
X2.5915Y-3.3205
X2.5915Y-3.4671
X2.595Y-2.985
X2.6Y-2.555
X2.61Y-5.56
X2.64Y-3.53
X2.65Y-3.85
X2.65Y-3.975
X2.65Y-5.1
X2.6593Y-3.7478
X2.67Y-2.99
X2.6828Y-4.6415
X2.69Y-3.1785
X2.7Y-4.94
X2.7185Y-3.4549
X2.72Y-3.58
X2.73Y-2.59
X2.73Y-3.905
X2.74Y-2.88
X2.7435Y-3.7115
X2.7486Y-3.4294
X2.75Y-1.89
X2.7757Y-3.96
X2.7825Y-2.9327
X2.785Y-1.837
X2.7851Y-1.6249
X2.793Y-5.6233
X2.799Y-2.14
X2.81Y-2.75
X2.8116Y-4.7085
X2.83Y-5.09
X2.83Y-5.69
X2.8323Y-3.1216
X2.8528Y-3.4014
X2.8585Y-5.6457
X2.87Y-2.7885
X2.871Y-5.683
X2.8715Y-5.0385
X2.8751Y-3.3388
X2.88Y-2.96
X2.88Y-3.53
X2.89Y-3.71
X2.92Y-2.79
X2.92Y-3.945
X2.93Y-1.8
X2.95Y-3.51
X2.9542Y-3.1861
X2.96Y-2.59
X2.97Y-4.3215
X2.97Y-5.67
X2.9757Y-2.77
X2.99Y-2.94
X2.99Y-3.72
X2.99Y-5.03
X3.016Y-2.9695
X3.0221Y-3.187
X3.03Y-3.52
X3.06Y-4.93
X3.0615Y-4.3985
X3.07Y-2.998
X3.07Y-5.6815
X3.09Y-2.39
X3.09Y-4.275
X3.0985Y-4.165
X3.11Y-2.94
X3.1227Y-2.7979
X3.125Y-4.73
X3.1337Y-3.187
X3.1396Y-3.2465
X3.1462Y-2.7188
X3.15Y-2.96
X3.16Y-5.77
X3.16Y-3.017
X3.1636Y-4.5815
X3.17Y-3.9115
X3.17Y-5.12
X3.1744Y-2.6747
X3.1797Y-2.7848
X3.2Y-3.77
X3.22Y-3.2
X3.24Y-2.79
X3.24Y-2.85
X3.24Y-5.4615
X3.27Y-4.425
X3.28Y-3.7115
X3.2938Y-3.235
X3.31Y-4.74
X3.32Y-4.29
X3.3373Y-5.1418
X3.3465Y-4.4117
X3.36Y-5.41
X3.37Y-5.09
X3.38Y-3.4515
X3.383Y-4.8609
X3.402Y-3.3562
X3.43Y-2.9
X3.45Y-2.51
X3.46Y-5.38
X3.47Y-2.83
X3.4852Y-4.2699
X3.5033Y-4.4086
X3.5036Y-4.5815
X3.51Y-2.9
X3.52Y-5.5985
X3.5562Y-3.6798
X3.58Y-2.5
X3.58Y-3.55
X3.58Y-5.44
X3.5828Y-3.7115
X3.595Y-4.505
X3.63Y-2.89
X3.63Y-3.04
X3.6507Y-5.02
X3.69Y-3.5803
X3.7Y-5.4261
X3.7Y-5.53
X3.7Y-5.71
X3.71Y-5.34
X3.7286Y-2.9087
X3.74Y-4.94
X3.77Y-3.61
X3.78Y-3.94
X3.8255Y-4.8938
X3.8744Y-3.9159
X3.88Y-3.64
X3.9Y-5.0
X3.9Y-5.09
X3.93Y-4.32
X3.975Y-3.8982
X3.98Y-2.44
X3.98Y-3.06
X3.9935Y-4.4162
X4.015Y-4.04
X4.017Y-2.4534
X4.0413Y-4.3384
X4.0553Y-2.4623
X4.07Y-5.2
X4.08Y-5.12
X4.1034Y-4.22
X4.1034Y-4.5335
X4.13Y-3.03
X4.1317Y-4.1585
X4.14Y-4.61
X4.1408Y-4.4115
X4.15Y-4.31
X4.16Y-5.75
X4.1636Y-4.1815
X4.17Y-3.51
X4.1762Y-4.5379
X4.195Y-3.6938
X4.2046Y-4.0407
X4.2099Y-4.9662
X4.2159Y-4.1415
X4.2256Y-2.5148
X4.2392Y-4.8915
X4.24Y-2.97
X4.24Y-3.895
X4.2415Y-4.5784
X4.2605Y-2.4945
X4.27Y-4.67
X4.28Y-2.94
X4.28Y-3.43
X4.29Y-1.97
X4.295Y-4.015
X4.2973Y-5.15
X4.3Y-4.37
X4.31Y-3.08
X4.3106Y-3.8358
X4.34Y-2.47
X4.35Y-2.65
X4.374Y-4.6369
X4.38Y-4.54
X4.4Y-2.65
X4.4084Y-2.4094
X4.4149Y-2.3702
X4.42Y-2.51
X4.43Y-3.11
X4.43Y-4.28
X4.4308Y-2.3296
X4.4319Y-3.8515
X4.44Y-2.44
X4.4596Y-4.826
X4.4738Y-3.2538
X4.48Y-2.68
X4.4833Y-3.5715
X4.49Y-2.74
X4.5348Y-3.6448
X4.55Y-2.46
X4.57Y-2.23
X4.57Y-4.04
X4.57Y-4.16
X4.58Y-2.86
X4.59Y-3.24
X4.63Y-3.9854
X4.63Y-4.28
X4.68Y-2.5
X4.7Y-5.44
X4.71Y-3.24
X4.75Y-2.5
X4.7702Y-5.3402
X4.8Y-4.92
X4.8Y-5.03
X4.85Y-3.9569
X4.85Y-4.66
X4.85Y-5.7405
X4.8605Y-3.2412
X4.8785Y-4.8322
X4.88Y-2.51
X4.88Y-4.765
X4.89Y-3.88
X4.9085Y-4.9315
X4.91Y-4.28
X4.9267Y-4.8647
X4.94Y-4.53
X4.94Y-5.0292
X4.9482Y-5.5585
X4.955Y-4.96
X4.9653Y-4.857
X4.974Y-5.4316
X4.98Y-3.27
X4.995Y-4.745
X5.03Y-2.39
X5.05Y-5.56
X5.0539Y-4.8712
X5.06Y-5.3208
X5.074Y-5.704
X5.09Y-4.72
X5.1164Y-4.8889
X5.13Y-5.04
X5.14Y-2.8
X5.16Y-5.61
X5.16Y-5.72
X5.172Y-4.2515
X5.175Y-4.69
X5.23Y-5.6672
X5.24Y-2.51
X5.26Y-3.64
X5.2632Y-5.7418
X5.3Y-5.24
X5.35Y-3.86
X5.35Y-4.16
X5.35Y-4.25
X5.35Y-4.58
X5.36Y-5.57
X5.36Y-5.73
X5.42Y-5.0
X5.42Y-5.09
X5.42Y-5.47
X5.42Y-5.56
X5.49Y-3.28
X5.5Y-2.91
X5.54Y-4.99
X5.58Y-3.67
X5.64Y-5.16
X5.648Y-4.9362
X5.6799Y-4.7962
X5.68Y-4.2515
X5.685Y-3.605
X5.75Y-5.73
X5.758Y-5.3424
X5.775Y-4.7785
X5.78Y-3.58
X5.7829Y-4.2429
X5.875Y-4.75
X5.88Y-4.22
X5.8952Y-3.9656
X5.9205Y-2.58
X5.9526Y-4.1984
X5.9705Y-3.17
X5.9752Y-4.3985
X5.98Y-4.72
X6.0119Y-4.4672
X6.0306Y-3.9865
X6.06Y-5.36
X6.08Y-2.81
X6.08Y-4.1876
X6.08Y-4.69
X6.1Y-5.12
X6.11Y-5.03
X6.1195Y-2.569
X6.1199Y-4.8535
X6.125Y-4.575
X6.15Y-4.65
X6.1535Y-4.7006
X6.1535Y-4.8309
X6.178Y-4.2761
X6.1805Y-2.463
X6.19Y-4.9359
X6.2025Y-3.316
X6.225Y-4.9599
X6.2305Y-2.46
X6.28Y-3.785
X6.28Y-4.2938
X6.3005Y-2.33
X6.3305Y-3.08
X6.34Y-4.68
X6.3415Y-4.93
X6.365Y-3.735
X6.3705Y-2.96
X6.4Y-2.88
X6.42Y-3.11
X6.43Y-4.15
X6.4415Y-2.161
X6.4445Y-2.85
X6.51Y-5.4
X6.52Y-4.3115
X6.5635Y-4.4616
X6.63Y-4.37
X6.68Y-4.33
X6.7215Y-2.8302
X6.73Y-3.13
X6.74Y-4.67
X6.77Y-3.41
X6.77Y-4.4
X6.78Y-4.44
X6.79Y-3.22
X6.8Y-2.67
X6.85Y-4.91
X6.8538Y-5.1764
X6.87Y-4.48
X6.875Y-4.015
X6.93Y-3.86
X6.96Y-4.46
X6.9993Y-3.825
X7.01Y-5.67
X7.04Y-2.99
X7.04Y-4.84
X7.0436Y-3.7815
X7.05Y-4.97
X7.18Y-5.7
X7.1857Y-4.2794
X7.2Y-4.8
X7.21Y-5.2405
X7.2326Y-4.2728
X7.27Y-3.46
X7.3Y-2.83
X7.3101Y-3.1248
X7.35Y-4.56
X7.35Y-4.97
X7.38Y-4.24
X7.41Y-4.21
X7.51Y-2.76
X7.55Y-4.97
X7.57Y-4.86
X7.5865Y-4.1815
X7.6Y-5.34
X7.6309Y-3.1701
X7.6348Y-4.2051
X7.64Y-3.04
X7.64Y-3.12
X7.64Y-3.21
X7.6614Y-3.2482
X7.69Y-5.37
X7.6952Y-4.2552
X7.7Y-3.12
X7.71Y-3.93
X7.7145Y-3.307
X7.7185Y-3.2527
X7.7185Y-2.74
X7.7185Y-2.8
X7.72Y-2.185
X7.72Y-2.235
X7.73Y-4.28
X7.75Y-3.15
X7.76Y-4.32
X7.77Y-2.87
X7.78Y-3.18
X7.8018Y-3.2127
X7.81Y-2.91
X7.82Y-2.96
X7.8301Y-3.2401
X7.85Y-3.0
X7.86Y-3.27
X7.87Y-2.29
X7.8785Y-3.0532
X7.88Y-2.68
X7.9Y-5.03
X8.02Y-3.2
X8.04Y-2.33
X8.05Y-5.37
X8.06Y-3.86
X8.07Y-3.81
X8.0715Y-3.16
X8.09Y-3.75
X8.1Y-3.11
T2
X2.1881Y-1.6753
X2.1881Y-1.7285
X2.2216Y-1.6753
X2.2216Y-1.7285
X2.255Y-1.6753
X2.255Y-1.7285
X2.2885Y-1.6753
X2.2885Y-1.7285
X2.3219Y-1.6753
X2.3219Y-1.7285
X2.3554Y-1.6753
X2.3554Y-1.7285
X2.3889Y-1.6753
X2.3889Y-1.7285
X2.4223Y-1.6753
X2.4223Y-1.7285
T4
X2.65Y-5.2642
X2.7Y-5.2642
X2.75Y-5.2642
X5.22Y-5.0642
X5.27Y-5.0642
X5.32Y-5.0642
X7.45Y-4.5642
X7.5Y-4.5642
X7.55Y-4.5642
T5
X1.92Y-3.06
X1.92Y-3.66
X1.92Y-3.79
X1.92Y-4.09
X1.92Y-4.22
X1.92Y-4.82
X1.9816Y-5.21
X2.02Y-3.06
X2.02Y-3.66
X2.02Y-3.79
X2.02Y-4.09
X2.02Y-4.22
X2.02Y-4.82
X2.08Y-5.21
X2.12Y-3.06
X2.12Y-3.66
X2.12Y-3.79
X2.12Y-4.09
X2.12Y-4.22
X2.12Y-4.82
X2.22Y-3.06
X2.22Y-3.66
X2.22Y-3.79
X2.22Y-4.09
X2.22Y-4.22
X2.22Y-4.82
X2.22Y-5.27
X2.32Y-3.06
X2.32Y-3.66
X2.32Y-3.79
X2.32Y-4.09
X2.32Y-4.22
X2.32Y-4.82
X2.42Y-3.06
X2.42Y-3.66
X2.42Y-3.79
X2.42Y-4.09
X2.42Y-4.22
X2.42Y-4.82
X2.52Y-3.06
X2.52Y-3.66
X2.52Y-3.79
X2.52Y-4.09
X2.52Y-4.22
X2.52Y-4.82
X2.52Y-5.27
X2.6187Y-1.7
X2.62Y-3.06
X2.62Y-3.66
X2.62Y-3.79
X2.62Y-4.09
X2.62Y-4.22
X2.62Y-4.82
X2.7171Y-1.7
X2.72Y-3.06
X2.72Y-3.66
X2.72Y-3.79
X2.72Y-4.09
X2.72Y-4.22
X2.72Y-4.82
X2.82Y-3.06
X2.82Y-3.66
X2.82Y-3.79
X2.82Y-4.09
X2.82Y-4.22
X2.82Y-4.82
X2.92Y-3.06
X2.92Y-3.66
X2.92Y-3.79
X2.92Y-4.09
X2.92Y-4.22
X2.92Y-4.82
X3.02Y-3.06
X3.02Y-3.66
X3.02Y-3.79
X3.02Y-4.09
X3.02Y-4.22
X3.02Y-4.82
X3.12Y-3.06
X3.12Y-3.66
X3.12Y-4.22
X3.12Y-4.82
X3.22Y-1.9
X3.22Y-2.0
X3.22Y-2.1
X3.22Y-2.2
X3.22Y-3.06
X3.22Y-3.66
X3.22Y-4.22
X3.22Y-4.82
X3.22Y-4.95
X3.28Y-3.79
X3.28Y-4.09
X3.32Y-4.22
X3.32Y-4.82
X3.32Y-4.95
X3.38Y-3.79
X3.38Y-4.09
X3.42Y-1.59
X3.42Y-1.6884
X3.42Y-4.22
X3.42Y-4.82
X3.42Y-4.95
X3.44Y-2.59
X3.44Y-3.19
X3.48Y-3.79
X3.48Y-4.09
X3.52Y-1.9
X3.52Y-2.0
X3.52Y-2.1
X3.52Y-2.2
X3.52Y-4.22
X3.52Y-4.82
X3.52Y-4.95
X3.54Y-2.59
X3.54Y-3.19
X3.58Y-3.79
X3.58Y-4.09
X3.62Y-4.22
X3.62Y-4.82
X3.62Y-4.95
X3.64Y-2.59
X3.64Y-3.19
X3.68Y-3.79
X3.68Y-4.09
X3.72Y-4.22
X3.72Y-4.82
X3.74Y-2.59
X3.74Y-3.19
X3.78Y-3.79
X3.78Y-4.09
X3.79Y-2.17
X3.79Y-2.2684
X3.82Y-4.22
X3.82Y-4.82
X3.84Y-2.59
X3.84Y-3.19
X3.88Y-3.79
X3.88Y-4.09
X3.94Y-2.59
X3.94Y-3.19
X3.98Y-3.79
X3.98Y-4.09
X4.04Y-2.59
X4.04Y-3.19
X4.05Y-4.47
X4.05Y-4.77
X4.08Y-3.79
X4.08Y-4.09
X4.14Y-2.59
X4.14Y-3.19
X4.17Y-1.6684
X4.17Y-1.7684
X4.17Y-1.8684
X4.17Y-1.9684
X4.17Y-2.0684
X4.17Y-2.1684
X4.17Y-2.2684
X4.17Y-2.3684
X4.18Y-3.79
X4.18Y-4.09
X4.24Y-2.59
X4.24Y-3.19
X4.28Y-3.79
X4.28Y-4.09
X4.3Y-5.22
X4.3Y-5.52
X4.3Y-5.65
X4.34Y-2.59
X4.34Y-3.19
X4.35Y-4.47
X4.35Y-4.77
X4.38Y-3.79
X4.38Y-4.09
X4.4Y-5.22
X4.4Y-5.52
X4.4Y-5.65
X4.44Y-2.59
X4.44Y-3.19
X4.47Y-1.6684
X4.47Y-1.7684
X4.47Y-1.8684
X4.47Y-1.9684
X4.47Y-2.0684
X4.47Y-2.1684
X4.47Y-2.2684
X4.47Y-2.3684
X4.5Y-5.22
X4.5Y-5.52
X4.5Y-5.65
X4.54Y-2.59
X4.54Y-3.19
X4.6Y-5.22
X4.6Y-5.52
X4.6Y-5.65
X4.64Y-2.59
X4.64Y-3.19
X4.67Y-1.69
X4.67Y-1.7884
X4.7Y-5.22
X4.7Y-5.52
X4.7Y-5.65
X4.74Y-2.59
X4.74Y-3.19
X4.8Y-5.22
X4.8Y-5.52
X4.8Y-5.65
X4.84Y-2.59
X4.84Y-3.19
X4.9Y-5.22
X4.9Y-5.52
X4.9Y-5.65
X4.94Y-2.59
X4.94Y-3.19
X5.0Y-5.22
X5.0Y-5.52
X5.0Y-5.65
X5.04Y-2.59
X5.04Y-3.19
X5.1Y-5.22
X5.1Y-5.52
X5.14Y-2.59
X5.14Y-3.19
X5.2Y-5.22
X5.2Y-5.52
X5.24Y-2.59
X5.24Y-3.19
X5.34Y-2.59
X5.34Y-3.19
X5.6605Y-2.139
X5.6605Y-2.27
X5.6605Y-2.4
X5.6605Y-2.53
X5.6605Y-2.66
X5.7605Y-2.139
X5.7605Y-2.27
X5.7605Y-2.4
X5.7605Y-2.53
X5.7605Y-2.66
X5.8605Y-2.139
X5.8605Y-2.27
X5.8605Y-2.4
X5.8605Y-2.53
X5.8605Y-2.66
X5.9605Y-2.139
X5.9605Y-2.27
X5.9605Y-2.4
X5.9605Y-2.53
X5.9605Y-2.66
X6.0605Y-2.139
X6.0605Y-2.27
X6.0605Y-2.4
X6.0605Y-2.53
X6.0605Y-2.66
X6.1605Y-2.139
X6.1605Y-2.27
X6.1605Y-2.4
X6.1605Y-2.53
X6.1605Y-2.66
X6.2605Y-2.139
X6.2605Y-2.27
X6.2605Y-2.4
X6.2605Y-2.53
X6.2605Y-2.66
X6.3605Y-2.139
X6.3605Y-2.27
X6.3605Y-2.4
X6.3605Y-2.53
X6.3605Y-2.66
X6.4925Y-2.62
X6.4925Y-2.72
X6.4925Y-2.82
X6.4925Y-2.92
X6.4925Y-3.02
X6.4925Y-3.12
X6.4925Y-3.22
X6.4925Y-3.32
X6.4935Y-1.78
X6.4935Y-1.88
X6.4935Y-1.98
X6.4935Y-2.08
X6.4935Y-2.18
X6.4935Y-2.28
X6.4935Y-2.38
X6.4935Y-2.48
X6.7Y-4.72
X6.7Y-5.02
X6.8Y-4.72
X6.8Y-5.02
X6.9Y-4.72
X6.9Y-5.02
X7.0Y-4.72
X7.0Y-5.02
X7.0Y-5.15
X7.1Y-4.72
X7.1Y-5.02
X7.1Y-5.15
X7.2Y-4.72
X7.2Y-5.02
X7.2Y-5.15
X7.3Y-4.72
X7.3Y-5.02
X7.3Y-5.15
X7.4Y-4.72
X7.4Y-5.02
X7.4Y-5.15
X7.5Y-4.72
X7.5Y-5.02
X7.5Y-5.15
X7.6Y-4.72
X7.6Y-5.02
X7.6Y-5.15
X7.7Y-5.15
T6
X2.7Y-5.5198
X2.7Y-5.6198
T7
X3.2455Y-5.1941
X3.3Y-5.3059
X3.3545Y-5.1941
X3.4091Y-5.3059
X3.4636Y-5.1941
X3.5181Y-5.3059
X3.5726Y-5.1941
X3.6272Y-5.3059
X3.6817Y-5.1941
X5.58Y-3.9106
X5.58Y-4.1106
X5.5844Y-1.907
X5.6295Y-1.8291
X5.6295Y-1.985
X5.6746Y-1.907
X5.68Y-3.9106
X5.68Y-4.1106
X5.7196Y-1.8291
X5.7196Y-1.985
X5.7647Y-1.907
X5.78Y-3.9106
X5.78Y-4.1106
X5.8098Y-1.8291
X5.8098Y-1.985
X5.8549Y-1.907
X5.88Y-3.9106
X5.88Y-4.1106
X5.8999Y-1.8291
X5.8999Y-1.985
X5.945Y-1.907
X5.98Y-3.9106
X5.98Y-4.1106
X5.9901Y-1.8291
X5.9901Y-1.985
X6.0698Y-5.1914
X6.08Y-3.9106
X6.08Y-4.1106
X6.1243Y-5.3032
X6.1788Y-5.1914
X6.18Y-3.9106
X6.18Y-4.1106
X6.2333Y-5.3032
X6.28Y-3.9106
X6.28Y-4.1106
X6.2879Y-5.1914
X6.3424Y-5.3032
X6.38Y-3.9106
X6.38Y-4.1106
X6.3969Y-5.1914
X6.4515Y-5.3032
X6.48Y-3.9106
X6.48Y-4.1106
X6.506Y-5.1914
X6.58Y-3.9106
X6.58Y-4.1106
X6.68Y-3.9106
X6.68Y-4.1106
X6.78Y-3.9106
X6.78Y-4.1106
X6.88Y-3.9106
X6.88Y-4.1106
X6.98Y-3.9106
X6.98Y-4.1106
T8
X6.665Y-1.5756
X6.665Y-1.6756
X6.665Y-1.7756
X6.665Y-1.8756
X6.665Y-1.9756
X6.665Y-2.0756
X6.665Y-2.1756
X6.665Y-2.2756
X6.665Y-2.3756
X6.665Y-2.4756
X6.665Y-2.5756
X6.665Y-2.6756
X6.665Y-2.7756
X6.665Y-2.8756
X6.665Y-2.9756
X6.665Y-3.0756
X6.665Y-3.1756
X6.665Y-3.2756
X6.665Y-3.3756
X6.665Y-3.4756
X6.915Y-3.4665
X7.015Y-3.4665
X7.115Y-3.4665
X7.365Y-1.5756
X7.365Y-1.6756
X7.365Y-1.7756
X7.365Y-1.8756
X7.365Y-1.9756
X7.365Y-2.0756
X7.365Y-2.1756
X7.365Y-2.2756
X7.365Y-2.3756
X7.365Y-2.4756
X7.365Y-2.5756
X7.365Y-2.6756
X7.365Y-2.7756
X7.365Y-2.8756
X7.365Y-2.9756
X7.365Y-3.0756
X7.365Y-3.1756
X7.365Y-3.2756
X7.365Y-3.3756
X7.365Y-3.4756
T9
X2.242Y-5.4814
X2.242Y-5.6586
X2.498Y-5.4814
X2.498Y-5.6586
X4.2Y-5.08
X4.6Y-5.08
X6.42Y-4.59
X6.82Y-4.59
X7.272Y-5.4814
X7.272Y-5.6586
X7.528Y-5.4814
X7.528Y-5.6586
X7.5955Y-1.585
X7.5955Y-1.985
T10
X2.9715Y-5.25
X3.9557Y-5.25
X5.3072Y-1.9291
X5.7957Y-5.2473
X6.2915Y-1.9291
X6.78Y-5.2473
T2
G00X3.65Y-1.8446
M15
G01X3.65Y-1.884
M16
G05
G00X3.8665Y-1.6674
M15
G01X3.8272Y-1.6674
M16
G05
G00X4.0437Y-1.884
M15
G01X4.0437Y-1.8446
M16
G05
T3
G00X2.1349Y-1.5726
M15
G01X2.1349Y-1.5411
M16
G05
G00X2.1349Y-1.7194
M15
G01X2.1349Y-1.6604
M16
G05
G00X2.4755Y-1.5726
M15
G01X2.4755Y-1.5411
M16
G05
G00X2.4755Y-1.7194
M15
G01X2.4755Y-1.6604
M16
G05
T0
M30
