M48
; DRILL file {KiCad 7.0.2-0} date 2024 December 31, Tuesday 08:54:26
; FORMAT={-:-/ absolute / inch / decimal}
; #@! TF.CreationDate,2024-12-31T08:54:26-08:00
; #@! TF.GenerationSoftware,Kicad,Pcbnew,7.0.2-0
; #@! TF.FileFunction,Plated,1,2,PTH
FMAT,2
INCH
; #@! TA.AperFunction,Plated,PTH,ViaDrill
T1C0.0157
; #@! TA.AperFunction,Plated,PTH,ComponentDrill
T2C0.0315
%
G90
G05
T1
X6.25Y-3.25
X6.25Y-3.45
X6.3Y-3.29
T2
X5.3889Y-1.568
X5.3889Y-1.668
X5.3889Y-1.768
X5.3889Y-1.868
X5.3889Y-1.968
X5.3889Y-2.068
X5.3889Y-2.168
X5.3889Y-2.268
X5.3889Y-2.368
X5.3889Y-2.468
X5.3889Y-2.568
X5.3889Y-2.668
X5.3889Y-2.768
X5.3889Y-2.868
X5.3889Y-2.968
X5.3889Y-3.068
X5.3889Y-3.168
X5.3889Y-3.268
X5.3889Y-3.368
X5.3889Y-3.468
X5.49Y-1.568
X5.49Y-1.668
X5.49Y-1.768
X5.49Y-1.868
X5.49Y-1.968
X5.49Y-2.068
X5.49Y-2.168
X5.49Y-2.268
X5.49Y-2.368
X5.49Y-2.468
X5.49Y-2.568
X5.49Y-2.668
X5.49Y-2.768
X5.49Y-2.868
X5.49Y-2.968
X5.49Y-3.068
X5.49Y-3.168
X5.49Y-3.268
X5.49Y-3.368
X5.49Y-3.468
X5.9889Y-1.568
X5.9889Y-1.668
X5.9889Y-1.768
X5.9889Y-1.868
X5.9889Y-1.968
X5.9889Y-2.068
X5.9889Y-2.168
X5.9889Y-2.268
X5.9889Y-2.368
X5.9889Y-2.468
X5.9889Y-2.568
X5.9889Y-2.668
X5.9889Y-2.768
X5.9889Y-2.868
X5.9889Y-2.968
X5.9889Y-3.068
X5.9889Y-3.168
X5.9889Y-3.268
X5.9889Y-3.368
X5.9889Y-3.468
X6.09Y-1.568
X6.09Y-1.668
X6.09Y-1.768
X6.09Y-1.868
X6.09Y-1.968
X6.09Y-2.068
X6.09Y-2.168
X6.09Y-2.268
X6.09Y-2.368
X6.09Y-2.468
X6.09Y-2.568
X6.09Y-2.668
X6.09Y-2.768
X6.09Y-2.868
X6.09Y-2.968
X6.09Y-3.068
X6.09Y-3.168
X6.09Y-3.268
X6.09Y-3.368
X6.09Y-3.468
T0
M30
