%TF.GenerationSoftware,KiCad,Pcbnew,7.0.2-0*%
%TF.CreationDate,2024-12-31T08:54:24-08:00*%
%TF.ProjectId,rev2_x_ay_interposer,72657632-5f78-45f6-9179-5f696e746572,1.0*%
%TF.SameCoordinates,Original*%
%TF.FileFunction,Soldermask,Top*%
%TF.FilePolarity,Negative*%
%FSLAX46Y46*%
G04 Gerber Fmt 4.6, Leading zero omitted, Abs format (unit mm)*
G04 Created by KiCad (PCBNEW 7.0.2-0) date 2024-12-31 08:54:24*
%MOMM*%
%LPD*%
G01*
G04 APERTURE LIST*
G04 Aperture macros list*
%AMRoundRect*
0 Rectangle with rounded corners*
0 $1 Rounding radius*
0 $2 $3 $4 $5 $6 $7 $8 $9 X,Y pos of 4 corners*
0 Add a 4 corners polygon primitive as box body*
4,1,4,$2,$3,$4,$5,$6,$7,$8,$9,$2,$3,0*
0 Add four circle primitives for the rounded corners*
1,1,$1+$1,$2,$3*
1,1,$1+$1,$4,$5*
1,1,$1+$1,$6,$7*
1,1,$1+$1,$8,$9*
0 Add four rect primitives between the rounded corners*
20,1,$1+$1,$2,$3,$4,$5,0*
20,1,$1+$1,$4,$5,$6,$7,0*
20,1,$1+$1,$6,$7,$8,$9,0*
20,1,$1+$1,$8,$9,$2,$3,0*%
G04 Aperture macros list end*
%ADD10R,1.600000X1.600000*%
%ADD11O,1.600000X1.600000*%
%ADD12RoundRect,0.250000X0.337500X0.475000X-0.337500X0.475000X-0.337500X-0.475000X0.337500X-0.475000X0*%
%ADD13RoundRect,0.150000X-0.825000X-0.150000X0.825000X-0.150000X0.825000X0.150000X-0.825000X0.150000X0*%
G04 APERTURE END LIST*
D10*
%TO.C,U101*%
X139446000Y-39826400D03*
D11*
X139446000Y-42366400D03*
X139446000Y-44906400D03*
X139446000Y-47446400D03*
X139446000Y-49986400D03*
X139446000Y-52526400D03*
X139446000Y-55066400D03*
X139446000Y-57606400D03*
X139446000Y-60146400D03*
X139446000Y-62686400D03*
X139446000Y-65226400D03*
X139446000Y-67766400D03*
X139446000Y-70306400D03*
X139446000Y-72846400D03*
X139446000Y-75386400D03*
X139446000Y-77926400D03*
X139446000Y-80466400D03*
X139446000Y-83006400D03*
X139446000Y-85546400D03*
X139446000Y-88086400D03*
X154686000Y-88086400D03*
X154686000Y-85546400D03*
X154686000Y-83006400D03*
X154686000Y-80466400D03*
X154686000Y-77926400D03*
X154686000Y-75386400D03*
X154686000Y-72846400D03*
X154686000Y-70306400D03*
X154686000Y-67766400D03*
X154686000Y-65226400D03*
X154686000Y-62686400D03*
X154686000Y-60146400D03*
X154686000Y-57606400D03*
X154686000Y-55066400D03*
X154686000Y-52526400D03*
X154686000Y-49986400D03*
X154686000Y-47446400D03*
X154686000Y-44906400D03*
X154686000Y-42366400D03*
X154686000Y-39826400D03*
%TD*%
D12*
%TO.C,C101*%
X162581500Y-79502000D03*
X160506500Y-79502000D03*
%TD*%
D10*
%TO.C,U102*%
X136878200Y-39826400D03*
D11*
X136878200Y-42366400D03*
X136878200Y-44906400D03*
X136878200Y-47446400D03*
X136878200Y-49986400D03*
X136878200Y-52526400D03*
X136878200Y-55066400D03*
X136878200Y-57606400D03*
X136878200Y-60146400D03*
X136878200Y-62686400D03*
X136878200Y-65226400D03*
X136878200Y-67766400D03*
X136878200Y-70306400D03*
X136878200Y-72846400D03*
X136878200Y-75386400D03*
X136878200Y-77926400D03*
X136878200Y-80466400D03*
X136878200Y-83006400D03*
X136878200Y-85546400D03*
X136878200Y-88086400D03*
X152118200Y-88086400D03*
X152118200Y-85546400D03*
X152118200Y-83006400D03*
X152118200Y-80466400D03*
X152118200Y-77926400D03*
X152118200Y-75386400D03*
X152118200Y-72846400D03*
X152118200Y-70306400D03*
X152118200Y-67766400D03*
X152118200Y-65226400D03*
X152118200Y-62686400D03*
X152118200Y-60146400D03*
X152118200Y-57606400D03*
X152118200Y-55066400D03*
X152118200Y-52526400D03*
X152118200Y-49986400D03*
X152118200Y-47446400D03*
X152118200Y-44906400D03*
X152118200Y-42366400D03*
X152118200Y-39826400D03*
%TD*%
D13*
%TO.C,U103*%
X157226000Y-81280000D03*
X157226000Y-82550000D03*
X157226000Y-83820000D03*
X157226000Y-85090000D03*
X157226000Y-86360000D03*
X157226000Y-87630000D03*
X157226000Y-88900000D03*
X162176000Y-88900000D03*
X162176000Y-87630000D03*
X162176000Y-86360000D03*
X162176000Y-85090000D03*
X162176000Y-83820000D03*
X162176000Y-82550000D03*
X162176000Y-81280000D03*
%TD*%
M02*
